<mxfile host="65bd71144e" pages="3">
    <diagram id="yEPAX1w_8k3H46mBJu3x" name="ER model">
        <mxGraphModel dx="1587" dy="1011" grid="1" gridSize="10" guides="1" tooltips="1" connect="1" arrows="1" fold="1" page="1" pageScale="1" pageWidth="827" pageHeight="1169" background="#F1FAEE" math="0" shadow="0">
            <root>
                <mxCell id="0"/>
                <mxCell id="1" parent="0"/>
                <mxCell id="EKL2k6sbYP3e5nSj8rGB-1" value="Titel" style="rounded=1;arcSize=10;whiteSpace=wrap;html=1;align=center;fillColor=#A8DADC;strokeColor=#457B9D;fontColor=#1D3557;" parent="1" vertex="1">
                    <mxGeometry x="790" y="325" width="100" height="40" as="geometry"/>
                </mxCell>
                <mxCell id="EKL2k6sbYP3e5nSj8rGB-2" value="Item (Buch)&lt;br&gt;[&lt;font color=&quot;#000099&quot;&gt;Pivot&lt;/font&gt;: title_user]" style="rounded=1;arcSize=10;whiteSpace=wrap;html=1;align=center;fillColor=#A8DADC;strokeColor=#457B9D;fontColor=#1D3557;" parent="1" vertex="1">
                    <mxGeometry x="630" y="205" width="100" height="40" as="geometry"/>
                </mxCell>
                <mxCell id="EKL2k6sbYP3e5nSj8rGB-3" value="Autor" style="rounded=1;arcSize=10;whiteSpace=wrap;html=1;align=center;fillColor=#A8DADC;strokeColor=#457B9D;fontColor=#1D3557;" parent="1" vertex="1">
                    <mxGeometry x="950" y="205" width="100" height="40" as="geometry"/>
                </mxCell>
                <mxCell id="EKL2k6sbYP3e5nSj8rGB-4" value="Kategorie" style="rounded=1;arcSize=10;whiteSpace=wrap;html=1;align=center;fillColor=#A8DADC;strokeColor=#457B9D;fontColor=#1D3557;" parent="1" vertex="1">
                    <mxGeometry x="950" y="445" width="100" height="40" as="geometry"/>
                </mxCell>
                <mxCell id="EKL2k6sbYP3e5nSj8rGB-5" value="Buchungsstatus" style="rounded=1;arcSize=10;whiteSpace=wrap;html=1;align=center;fillColor=#A8DADC;strokeColor=#457B9D;fontColor=#1D3557;" parent="1" vertex="1">
                    <mxGeometry x="490" y="85" width="100" height="40" as="geometry"/>
                </mxCell>
                <mxCell id="EKL2k6sbYP3e5nSj8rGB-6" value="User" style="rounded=1;arcSize=10;whiteSpace=wrap;html=1;align=center;fillColor=#A8DADC;strokeColor=#457B9D;fontColor=#1D3557;" parent="1" vertex="1">
                    <mxGeometry x="470" y="325" width="100" height="40" as="geometry"/>
                </mxCell>
                <mxCell id="EKL2k6sbYP3e5nSj8rGB-7" value="Buchung" style="rounded=1;arcSize=10;whiteSpace=wrap;html=1;align=center;fillColor=#A8DADC;strokeColor=#457B9D;fontColor=#1D3557;" parent="1" vertex="1">
                    <mxGeometry x="330" y="205" width="100" height="40" as="geometry"/>
                </mxCell>
                <mxCell id="EKL2k6sbYP3e5nSj8rGB-45" style="edgeStyle=orthogonalEdgeStyle;rounded=0;orthogonalLoop=1;jettySize=auto;html=1;exitX=0.5;exitY=0;exitDx=0;exitDy=0;entryX=0.5;entryY=1;entryDx=0;entryDy=0;labelBackgroundColor=#F1FAEE;fontColor=#1D3557;strokeColor=#B5B5B5;" parent="1" source="EKL2k6sbYP3e5nSj8rGB-11" target="EKL2k6sbYP3e5nSj8rGB-1" edge="1">
                    <mxGeometry relative="1" as="geometry"/>
                </mxCell>
                <mxCell id="EKL2k6sbYP3e5nSj8rGB-86" style="edgeStyle=orthogonalEdgeStyle;rounded=0;orthogonalLoop=1;jettySize=auto;html=1;exitX=0;exitY=0.5;exitDx=0;exitDy=0;labelBackgroundColor=#F1FAEE;fontColor=#1D3557;strokeColor=#B5B5B5;" parent="1" source="EKL2k6sbYP3e5nSj8rGB-11" target="EKL2k6sbYP3e5nSj8rGB-42" edge="1">
                    <mxGeometry relative="1" as="geometry"/>
                </mxCell>
                <mxCell id="EKL2k6sbYP3e5nSj8rGB-11" value="sucht" style="shape=rhombus;perimeter=rhombusPerimeter;whiteSpace=wrap;html=1;align=center;fillColor=#A8DADC;strokeColor=#457B9D;sketch=1;fontColor=#1D3557;" parent="1" vertex="1">
                    <mxGeometry x="800" y="425" width="80" height="50" as="geometry"/>
                </mxCell>
                <mxCell id="EKL2k6sbYP3e5nSj8rGB-36" style="edgeStyle=orthogonalEdgeStyle;rounded=0;orthogonalLoop=1;jettySize=auto;html=1;exitX=0.5;exitY=0;exitDx=0;exitDy=0;entryX=1;entryY=0.5;entryDx=0;entryDy=0;labelBackgroundColor=#F1FAEE;fontColor=#1D3557;strokeColor=#B5B5B5;" parent="1" source="EKL2k6sbYP3e5nSj8rGB-12" target="EKL2k6sbYP3e5nSj8rGB-3" edge="1">
                    <mxGeometry relative="1" as="geometry"/>
                </mxCell>
                <mxCell id="EKL2k6sbYP3e5nSj8rGB-37" style="edgeStyle=orthogonalEdgeStyle;rounded=0;orthogonalLoop=1;jettySize=auto;html=1;entryX=1;entryY=0.5;entryDx=0;entryDy=0;labelBackgroundColor=#F1FAEE;fontColor=#1D3557;strokeColor=#B5B5B5;" parent="1" source="EKL2k6sbYP3e5nSj8rGB-12" target="EKL2k6sbYP3e5nSj8rGB-4" edge="1">
                    <mxGeometry relative="1" as="geometry">
                        <Array as="points">
                            <mxPoint x="1160" y="465"/>
                        </Array>
                    </mxGeometry>
                </mxCell>
                <mxCell id="EKL2k6sbYP3e5nSj8rGB-12" value="hat" style="shape=rhombus;perimeter=rhombusPerimeter;whiteSpace=wrap;html=1;align=center;fillColor=#A8DADC;strokeColor=#457B9D;sketch=1;fontColor=#1D3557;" parent="1" vertex="1">
                    <mxGeometry x="1120" y="320" width="80" height="50" as="geometry"/>
                </mxCell>
                <mxCell id="EKL2k6sbYP3e5nSj8rGB-69" style="edgeStyle=orthogonalEdgeStyle;rounded=0;orthogonalLoop=1;jettySize=auto;html=1;exitX=0;exitY=0.5;exitDx=0;exitDy=0;entryX=1;entryY=0;entryDx=0;entryDy=0;labelBackgroundColor=#F1FAEE;fontColor=#1D3557;strokeColor=#325A73;" parent="1" source="EKL2k6sbYP3e5nSj8rGB-13" target="EKL2k6sbYP3e5nSj8rGB-1" edge="1">
                    <mxGeometry relative="1" as="geometry"/>
                </mxCell>
                <mxCell id="EKL2k6sbYP3e5nSj8rGB-70" style="edgeStyle=orthogonalEdgeStyle;rounded=0;orthogonalLoop=1;jettySize=auto;html=1;exitX=0.5;exitY=0;exitDx=0;exitDy=0;entryX=0.5;entryY=1;entryDx=0;entryDy=0;strokeColor=#457B9D;labelBackgroundColor=#F1FAEE;fontColor=#1D3557;" parent="1" source="EKL2k6sbYP3e5nSj8rGB-13" target="EKL2k6sbYP3e5nSj8rGB-3" edge="1">
                    <mxGeometry relative="1" as="geometry"/>
                </mxCell>
                <mxCell id="EKL2k6sbYP3e5nSj8rGB-13" value="hat" style="shape=rhombus;perimeter=rhombusPerimeter;whiteSpace=wrap;html=1;align=center;fillColor=#A8DADC;strokeColor=#457B9D;fontColor=#1D3557;" parent="1" vertex="1">
                    <mxGeometry x="960" y="275" width="80" height="50" as="geometry"/>
                </mxCell>
                <mxCell id="EKL2k6sbYP3e5nSj8rGB-31" style="edgeStyle=orthogonalEdgeStyle;rounded=0;orthogonalLoop=1;jettySize=auto;html=1;entryX=1;entryY=0.5;entryDx=0;entryDy=0;labelBackgroundColor=#F1FAEE;fontColor=#1D3557;strokeColor=#325A73;" parent="1" source="EKL2k6sbYP3e5nSj8rGB-14" target="EKL2k6sbYP3e5nSj8rGB-2" edge="1">
                    <mxGeometry relative="1" as="geometry"/>
                </mxCell>
                <mxCell id="EKL2k6sbYP3e5nSj8rGB-32" style="edgeStyle=orthogonalEdgeStyle;rounded=0;orthogonalLoop=1;jettySize=auto;html=1;entryX=0.5;entryY=0;entryDx=0;entryDy=0;labelBackgroundColor=#F1FAEE;fontColor=#1D3557;strokeColor=#325A73;" parent="1" source="EKL2k6sbYP3e5nSj8rGB-14" target="EKL2k6sbYP3e5nSj8rGB-1" edge="1">
                    <mxGeometry relative="1" as="geometry"/>
                </mxCell>
                <mxCell id="EKL2k6sbYP3e5nSj8rGB-14" value="hat" style="shape=rhombus;perimeter=rhombusPerimeter;whiteSpace=wrap;html=1;align=center;fillColor=#A8DADC;strokeColor=#457B9D;fontColor=#1D3557;" parent="1" vertex="1">
                    <mxGeometry x="800" y="200" width="80" height="50" as="geometry"/>
                </mxCell>
                <mxCell id="EKL2k6sbYP3e5nSj8rGB-27" style="edgeStyle=orthogonalEdgeStyle;rounded=0;orthogonalLoop=1;jettySize=auto;html=1;exitX=1;exitY=0.5;exitDx=0;exitDy=0;entryX=0;entryY=0.5;entryDx=0;entryDy=0;labelBackgroundColor=#F1FAEE;fontColor=#1D3557;strokeColor=#325A73;" parent="1" source="EKL2k6sbYP3e5nSj8rGB-15" target="EKL2k6sbYP3e5nSj8rGB-5" edge="1">
                    <mxGeometry relative="1" as="geometry"/>
                </mxCell>
                <mxCell id="EKL2k6sbYP3e5nSj8rGB-29" style="edgeStyle=orthogonalEdgeStyle;rounded=0;orthogonalLoop=1;jettySize=auto;html=1;exitX=0.5;exitY=1;exitDx=0;exitDy=0;entryX=0.5;entryY=0;entryDx=0;entryDy=0;labelBackgroundColor=#F1FAEE;fontColor=#1D3557;strokeColor=#325A73;" parent="1" source="EKL2k6sbYP3e5nSj8rGB-15" target="EKL2k6sbYP3e5nSj8rGB-7" edge="1">
                    <mxGeometry relative="1" as="geometry"/>
                </mxCell>
                <mxCell id="EKL2k6sbYP3e5nSj8rGB-15" value="Ã¤ndert" style="shape=rhombus;perimeter=rhombusPerimeter;whiteSpace=wrap;html=1;align=center;fillColor=#A8DADC;strokeColor=#457B9D;fontColor=#1D3557;" parent="1" vertex="1">
                    <mxGeometry x="340" y="80" width="80" height="50" as="geometry"/>
                </mxCell>
                <mxCell id="EKL2k6sbYP3e5nSj8rGB-24" style="edgeStyle=orthogonalEdgeStyle;rounded=0;orthogonalLoop=1;jettySize=auto;html=1;entryX=1;entryY=0.5;entryDx=0;entryDy=0;fontColor=#1D3557;labelBackgroundColor=#F1FAEE;strokeColor=#325A73;" parent="1" source="EKL2k6sbYP3e5nSj8rGB-16" target="EKL2k6sbYP3e5nSj8rGB-5" edge="1">
                    <mxGeometry relative="1" as="geometry"/>
                </mxCell>
                <mxCell id="EKL2k6sbYP3e5nSj8rGB-30" style="edgeStyle=orthogonalEdgeStyle;rounded=0;orthogonalLoop=1;jettySize=auto;html=1;exitX=0.5;exitY=1;exitDx=0;exitDy=0;entryX=0.5;entryY=0;entryDx=0;entryDy=0;labelBackgroundColor=#F1FAEE;fontColor=#1D3557;strokeColor=#325A73;" parent="1" source="EKL2k6sbYP3e5nSj8rGB-16" target="EKL2k6sbYP3e5nSj8rGB-2" edge="1">
                    <mxGeometry relative="1" as="geometry"/>
                </mxCell>
                <mxCell id="EKL2k6sbYP3e5nSj8rGB-16" value="hat" style="shape=rhombus;perimeter=rhombusPerimeter;whiteSpace=wrap;html=1;align=center;fillColor=#A8DADC;strokeColor=#457B9D;fontColor=#1D3557;" parent="1" vertex="1">
                    <mxGeometry x="640" y="80" width="80" height="50" as="geometry"/>
                </mxCell>
                <mxCell id="EKL2k6sbYP3e5nSj8rGB-21" style="edgeStyle=orthogonalEdgeStyle;rounded=0;orthogonalLoop=1;jettySize=auto;html=1;exitX=0;exitY=0.5;exitDx=0;exitDy=0;entryX=1;entryY=0.5;entryDx=0;entryDy=0;labelBackgroundColor=#F1FAEE;fontColor=#1D3557;strokeColor=#325A73;" parent="1" source="EKL2k6sbYP3e5nSj8rGB-17" target="EKL2k6sbYP3e5nSj8rGB-6" edge="1">
                    <mxGeometry relative="1" as="geometry"/>
                </mxCell>
                <mxCell id="EKL2k6sbYP3e5nSj8rGB-22" style="edgeStyle=orthogonalEdgeStyle;rounded=0;orthogonalLoop=1;jettySize=auto;html=1;exitX=0.5;exitY=0;exitDx=0;exitDy=0;entryX=0.5;entryY=1;entryDx=0;entryDy=0;strokeColor=#457B9D;labelBackgroundColor=#F1FAEE;fontColor=#1D3557;" parent="1" source="EKL2k6sbYP3e5nSj8rGB-17" target="EKL2k6sbYP3e5nSj8rGB-2" edge="1">
                    <mxGeometry relative="1" as="geometry"/>
                </mxCell>
                <mxCell id="EKL2k6sbYP3e5nSj8rGB-17" value="hat" style="shape=rhombus;perimeter=rhombusPerimeter;whiteSpace=wrap;html=1;align=center;fillColor=#A8DADC;strokeColor=#457B9D;fontColor=#1D3557;" parent="1" vertex="1">
                    <mxGeometry x="640" y="320" width="80" height="50" as="geometry"/>
                </mxCell>
                <mxCell id="EKL2k6sbYP3e5nSj8rGB-19" style="edgeStyle=orthogonalEdgeStyle;rounded=0;orthogonalLoop=1;jettySize=auto;html=1;entryX=0;entryY=0.5;entryDx=0;entryDy=0;labelBackgroundColor=#F1FAEE;fontColor=#1D3557;strokeColor=#325A73;" parent="1" source="EKL2k6sbYP3e5nSj8rGB-18" target="EKL2k6sbYP3e5nSj8rGB-6" edge="1">
                    <mxGeometry relative="1" as="geometry"/>
                </mxCell>
                <mxCell id="EKL2k6sbYP3e5nSj8rGB-20" style="edgeStyle=orthogonalEdgeStyle;rounded=0;orthogonalLoop=1;jettySize=auto;html=1;labelBackgroundColor=#F1FAEE;fontColor=#1D3557;strokeColor=#325A73;" parent="1" source="EKL2k6sbYP3e5nSj8rGB-18" target="EKL2k6sbYP3e5nSj8rGB-7" edge="1">
                    <mxGeometry relative="1" as="geometry">
                        <Array as="points"/>
                    </mxGeometry>
                </mxCell>
                <mxCell id="EKL2k6sbYP3e5nSj8rGB-18" value="macht" style="shape=rhombus;perimeter=rhombusPerimeter;whiteSpace=wrap;html=1;align=center;fillColor=#A8DADC;strokeColor=#457B9D;fontColor=#1D3557;" parent="1" vertex="1">
                    <mxGeometry x="340" y="320" width="80" height="50" as="geometry"/>
                </mxCell>
                <mxCell id="EKL2k6sbYP3e5nSj8rGB-38" value="Kalender" style="rounded=1;arcSize=10;whiteSpace=wrap;html=1;align=center;sketch=1;fillColor=#A8DADC;strokeColor=#457B9D;fontColor=#1D3557;" parent="1" vertex="1">
                    <mxGeometry x="460" y="205" width="100" height="40" as="geometry"/>
                </mxCell>
                <mxCell id="EKL2k6sbYP3e5nSj8rGB-39" value="Gruppe" style="rounded=1;arcSize=10;whiteSpace=wrap;html=1;align=center;sketch=1;fillColor=none;strokeColor=#457B9D;fontColor=#1D3557;" parent="1" vertex="1">
                    <mxGeometry x="660" y="575" width="100" height="40" as="geometry"/>
                </mxCell>
                <mxCell id="EKL2k6sbYP3e5nSj8rGB-40" value="Bewertung" style="rounded=1;arcSize=10;whiteSpace=wrap;html=1;align=center;sketch=1;fillColor=#A8DADC;strokeColor=#457B9D;fontColor=#1D3557;" parent="1" vertex="1">
                    <mxGeometry x="270" y="405" width="100" height="40" as="geometry"/>
                </mxCell>
                <mxCell id="EKL2k6sbYP3e5nSj8rGB-41" value="Nachricht" style="rounded=1;arcSize=10;whiteSpace=wrap;html=1;align=center;sketch=1;fillColor=#A8DADC;strokeColor=#457B9D;fontColor=#1D3557;" parent="1" vertex="1">
                    <mxGeometry x="660" y="515" width="100" height="40" as="geometry"/>
                </mxCell>
                <mxCell id="EKL2k6sbYP3e5nSj8rGB-42" value="Wunschliste/ Anfrage" style="rounded=1;arcSize=10;whiteSpace=wrap;html=1;align=center;sketch=1;fillColor=none;strokeColor=#457B9D;fontColor=#1D3557;" parent="1" vertex="1">
                    <mxGeometry x="660" y="430" width="100" height="40" as="geometry"/>
                </mxCell>
                <mxCell id="EKL2k6sbYP3e5nSj8rGB-53" value="1" style="text;html=1;align=center;verticalAlign=middle;resizable=0;points=[];autosize=1;strokeColor=none;fontColor=#1D3557;" parent="1" vertex="1">
                    <mxGeometry x="450" y="325" width="20" height="20" as="geometry"/>
                </mxCell>
                <mxCell id="EKL2k6sbYP3e5nSj8rGB-54" value="N" style="text;html=1;align=center;verticalAlign=middle;resizable=0;points=[];autosize=1;strokeColor=none;fontColor=#1D3557;" parent="1" vertex="1">
                    <mxGeometry x="380" y="245" width="20" height="20" as="geometry"/>
                </mxCell>
                <mxCell id="EKL2k6sbYP3e5nSj8rGB-55" value="1" style="text;html=1;align=center;verticalAlign=middle;resizable=0;points=[];autosize=1;strokeColor=none;fontColor=#1D3557;" parent="1" vertex="1">
                    <mxGeometry x="380" y="185" width="20" height="20" as="geometry"/>
                </mxCell>
                <mxCell id="EKL2k6sbYP3e5nSj8rGB-56" value="N" style="text;html=1;align=center;verticalAlign=middle;resizable=0;points=[];autosize=1;strokeColor=none;fontColor=#1D3557;" parent="1" vertex="1">
                    <mxGeometry x="470" y="80" width="20" height="20" as="geometry"/>
                </mxCell>
                <mxCell id="EKL2k6sbYP3e5nSj8rGB-57" value="&lt;font color=&quot;#0000cc&quot;&gt;1&lt;/font&gt;" style="text;html=1;align=center;verticalAlign=middle;resizable=0;points=[];autosize=1;strokeColor=none;fontColor=#1D3557;" parent="1" vertex="1">
                    <mxGeometry x="580" y="325" width="20" height="20" as="geometry"/>
                </mxCell>
                <mxCell id="EKL2k6sbYP3e5nSj8rGB-59" value="&lt;font color=&quot;#000099&quot;&gt;N&lt;/font&gt;" style="text;html=1;align=center;verticalAlign=middle;resizable=0;points=[];autosize=1;strokeColor=none;fontColor=#1D3557;" parent="1" vertex="1">
                    <mxGeometry x="650" y="245" width="20" height="20" as="geometry"/>
                </mxCell>
                <mxCell id="EKL2k6sbYP3e5nSj8rGB-60" value="1" style="text;html=1;align=center;verticalAlign=middle;resizable=0;points=[];autosize=1;strokeColor=none;fontColor=#1D3557;" parent="1" vertex="1">
                    <mxGeometry x="660" y="180" width="20" height="20" as="geometry"/>
                </mxCell>
                <mxCell id="EKL2k6sbYP3e5nSj8rGB-62" value="&lt;font color=&quot;#000099&quot;&gt;1&lt;/font&gt;" style="text;html=1;align=center;verticalAlign=middle;resizable=0;points=[];autosize=1;strokeColor=none;fontColor=#1D3557;" parent="1" vertex="1">
                    <mxGeometry x="820" y="305" width="20" height="20" as="geometry"/>
                </mxCell>
                <mxCell id="EKL2k6sbYP3e5nSj8rGB-63" value="&lt;font color=&quot;#000099&quot;&gt;N&lt;/font&gt;" style="text;html=1;align=center;verticalAlign=middle;resizable=0;points=[];autosize=1;strokeColor=none;fontColor=#1D3557;" parent="1" vertex="1">
                    <mxGeometry x="730" y="200" width="20" height="20" as="geometry"/>
                </mxCell>
                <mxCell id="EKL2k6sbYP3e5nSj8rGB-64" value="1" style="text;html=1;align=center;verticalAlign=middle;resizable=0;points=[];autosize=1;strokeColor=none;fontColor=#1D3557;" parent="1" vertex="1">
                    <mxGeometry x="1000" y="245" width="20" height="20" as="geometry"/>
                </mxCell>
                <mxCell id="EKL2k6sbYP3e5nSj8rGB-65" value="N" style="text;html=1;align=center;verticalAlign=middle;resizable=0;points=[];autosize=1;strokeColor=none;fontColor=#1D3557;" parent="1" vertex="1">
                    <mxGeometry x="890" y="305" width="20" height="20" as="geometry"/>
                </mxCell>
                <mxCell id="EKL2k6sbYP3e5nSj8rGB-66" value="1" style="text;html=1;align=center;verticalAlign=middle;resizable=0;points=[];autosize=1;strokeColor=none;fontColor=#1D3557;" parent="1" vertex="1">
                    <mxGeometry x="977" y="425" width="20" height="20" as="geometry"/>
                </mxCell>
                <mxCell id="EKL2k6sbYP3e5nSj8rGB-71" style="edgeStyle=orthogonalEdgeStyle;rounded=0;orthogonalLoop=1;jettySize=auto;html=1;exitX=0;exitY=0.5;exitDx=0;exitDy=0;entryX=1;entryY=1;entryDx=0;entryDy=0;labelBackgroundColor=#F1FAEE;fontColor=#1D3557;strokeColor=#325A73;" parent="1" source="EKL2k6sbYP3e5nSj8rGB-67" target="EKL2k6sbYP3e5nSj8rGB-1" edge="1">
                    <mxGeometry relative="1" as="geometry">
                        <Array as="points">
                            <mxPoint x="890" y="380"/>
                        </Array>
                    </mxGeometry>
                </mxCell>
                <mxCell id="EKL2k6sbYP3e5nSj8rGB-72" style="edgeStyle=orthogonalEdgeStyle;rounded=0;orthogonalLoop=1;jettySize=auto;html=1;exitX=0.5;exitY=1;exitDx=0;exitDy=0;labelBackgroundColor=#F1FAEE;fontColor=#1D3557;strokeColor=#325A73;" parent="1" source="EKL2k6sbYP3e5nSj8rGB-67" target="EKL2k6sbYP3e5nSj8rGB-4" edge="1">
                    <mxGeometry relative="1" as="geometry"/>
                </mxCell>
                <mxCell id="EKL2k6sbYP3e5nSj8rGB-67" value="hat" style="shape=rhombus;perimeter=rhombusPerimeter;whiteSpace=wrap;html=1;align=center;fillColor=#A8DADC;strokeColor=#457B9D;fontColor=#1D3557;" parent="1" vertex="1">
                    <mxGeometry x="960" y="355" width="80" height="50" as="geometry"/>
                </mxCell>
                <mxCell id="EKL2k6sbYP3e5nSj8rGB-73" value="N" style="text;html=1;align=center;verticalAlign=middle;resizable=0;points=[];autosize=1;strokeColor=none;fontColor=#1D3557;" parent="1" vertex="1">
                    <mxGeometry x="890" y="355" width="20" height="20" as="geometry"/>
                </mxCell>
                <mxCell id="EKL2k6sbYP3e5nSj8rGB-78" style="edgeStyle=orthogonalEdgeStyle;rounded=0;orthogonalLoop=1;jettySize=auto;html=1;entryX=0;entryY=0.5;entryDx=0;entryDy=0;labelBackgroundColor=#F1FAEE;fontColor=#1D3557;strokeColor=#5CA4D1;" parent="1" source="EKL2k6sbYP3e5nSj8rGB-75" target="EKL2k6sbYP3e5nSj8rGB-42" edge="1">
                    <mxGeometry relative="1" as="geometry">
                        <Array as="points">
                            <mxPoint x="630" y="445"/>
                        </Array>
                    </mxGeometry>
                </mxCell>
                <mxCell id="EKL2k6sbYP3e5nSj8rGB-82" style="edgeStyle=orthogonalEdgeStyle;rounded=0;orthogonalLoop=1;jettySize=auto;html=1;exitX=0;exitY=0.5;exitDx=0;exitDy=0;labelBackgroundColor=#F1FAEE;fontColor=#1D3557;strokeColor=#B5B5B5;" parent="1" source="EKL2k6sbYP3e5nSj8rGB-75" edge="1">
                    <mxGeometry relative="1" as="geometry">
                        <mxPoint x="550" y="365" as="targetPoint"/>
                        <Array as="points">
                            <mxPoint x="550" y="365"/>
                        </Array>
                    </mxGeometry>
                </mxCell>
                <mxCell id="EKL2k6sbYP3e5nSj8rGB-75" value="hat" style="shape=rhombus;perimeter=rhombusPerimeter;whiteSpace=wrap;html=1;align=center;fillColor=#A8DADC;strokeColor=#457B9D;sketch=1;fontColor=#1D3557;" parent="1" vertex="1">
                    <mxGeometry x="550" y="425" width="80" height="50" as="geometry"/>
                </mxCell>
                <mxCell id="EKL2k6sbYP3e5nSj8rGB-83" style="edgeStyle=orthogonalEdgeStyle;rounded=0;orthogonalLoop=1;jettySize=auto;html=1;entryX=1;entryY=0.5;entryDx=0;entryDy=0;labelBackgroundColor=#F1FAEE;fontColor=#1D3557;strokeColor=#B5B5B5;" parent="1" source="EKL2k6sbYP3e5nSj8rGB-80" target="EKL2k6sbYP3e5nSj8rGB-40" edge="1">
                    <mxGeometry relative="1" as="geometry"/>
                </mxCell>
                <mxCell id="EKL2k6sbYP3e5nSj8rGB-89" style="edgeStyle=orthogonalEdgeStyle;rounded=0;orthogonalLoop=1;jettySize=auto;html=1;exitX=1;exitY=0.5;exitDx=0;exitDy=0;entryX=0.4;entryY=1.05;entryDx=0;entryDy=0;entryPerimeter=0;labelBackgroundColor=#F1FAEE;fontColor=#1D3557;strokeColor=#B5B5B5;" parent="1" source="EKL2k6sbYP3e5nSj8rGB-80" target="EKL2k6sbYP3e5nSj8rGB-6" edge="1">
                    <mxGeometry relative="1" as="geometry"/>
                </mxCell>
                <mxCell id="EKL2k6sbYP3e5nSj8rGB-80" value="hat" style="shape=rhombus;perimeter=rhombusPerimeter;whiteSpace=wrap;html=1;align=center;fillColor=#A8DADC;strokeColor=#457B9D;sketch=1;fontColor=#1D3557;" parent="1" vertex="1">
                    <mxGeometry x="410" y="400" width="80" height="50" as="geometry"/>
                </mxCell>
                <mxCell id="EKL2k6sbYP3e5nSj8rGB-92" style="edgeStyle=orthogonalEdgeStyle;rounded=0;orthogonalLoop=1;jettySize=auto;html=1;entryX=0.6;entryY=1;entryDx=0;entryDy=0;entryPerimeter=0;labelBackgroundColor=#F1FAEE;fontColor=#1D3557;strokeColor=#B5B5B5;" parent="1" source="EKL2k6sbYP3e5nSj8rGB-90" target="EKL2k6sbYP3e5nSj8rGB-6" edge="1">
                    <mxGeometry relative="1" as="geometry"/>
                </mxCell>
                <mxCell id="EKL2k6sbYP3e5nSj8rGB-94" style="edgeStyle=orthogonalEdgeStyle;rounded=0;orthogonalLoop=1;jettySize=auto;html=1;entryX=0;entryY=0.5;entryDx=0;entryDy=0;labelBackgroundColor=#F1FAEE;fontColor=#1D3557;strokeColor=#B5B5B5;" parent="1" source="EKL2k6sbYP3e5nSj8rGB-90" target="EKL2k6sbYP3e5nSj8rGB-41" edge="1">
                    <mxGeometry relative="1" as="geometry"/>
                </mxCell>
                <mxCell id="EKL2k6sbYP3e5nSj8rGB-90" value="hat" style="shape=rhombus;perimeter=rhombusPerimeter;whiteSpace=wrap;html=1;align=center;fillColor=#A8DADC;strokeColor=#457B9D;sketch=1;fontColor=#1D3557;" parent="1" vertex="1">
                    <mxGeometry x="490" y="510" width="80" height="50" as="geometry"/>
                </mxCell>
                <mxCell id="EKL2k6sbYP3e5nSj8rGB-96" value="Phase 1" style="rounded=1;arcSize=10;whiteSpace=wrap;html=1;align=center;sketch=0;fillColor=#A8DADC;strokeColor=#457B9D;fontColor=#1D3557;" parent="1" vertex="1">
                    <mxGeometry x="30" y="515" width="80" height="35" as="geometry"/>
                </mxCell>
                <mxCell id="EKL2k6sbYP3e5nSj8rGB-97" value="Phase 2" style="rounded=1;arcSize=10;whiteSpace=wrap;html=1;align=center;sketch=1;fillColor=#A8DADC;strokeColor=#457B9D;fontColor=#1D3557;" parent="1" vertex="1">
                    <mxGeometry x="30" y="550" width="80" height="35" as="geometry"/>
                </mxCell>
                <mxCell id="EKL2k6sbYP3e5nSj8rGB-98" value="Phase 3 ??" style="rounded=1;arcSize=10;whiteSpace=wrap;html=1;align=center;sketch=1;fillColor=none;strokeColor=#457B9D;fontColor=#1D3557;" parent="1" vertex="1">
                    <mxGeometry x="30" y="585" width="80" height="35" as="geometry"/>
                </mxCell>
                <mxCell id="peNkhFXcFQam7MGLdBic-1" value="Rolle" style="rounded=1;arcSize=10;whiteSpace=wrap;html=1;align=center;fillColor=#A8DADC;strokeColor=#457B9D;sketch=1;fontColor=#1D3557;" parent="1" vertex="1">
                    <mxGeometry x="270" y="515" width="100" height="40" as="geometry"/>
                </mxCell>
                <mxCell id="8" value="1" style="text;html=1;align=center;verticalAlign=middle;resizable=0;points=[];autosize=1;fontColor=#1D3557;" parent="1" vertex="1">
                    <mxGeometry x="590" y="110" width="20" height="20" as="geometry"/>
                </mxCell>
            </root>
        </mxGraphModel>
    </diagram>
    <diagram name="relation schema" id="755AppofpC494AK4KQkV">
        <mxGraphModel dx="1587" dy="1011" grid="1" gridSize="10" guides="1" tooltips="1" connect="1" arrows="1" fold="1" page="1" pageScale="1" pageWidth="827" pageHeight="1169" background="#F1FAEE" math="0" shadow="0">
            <root>
                <mxCell id="PrXgXA7qm4J3uyecdOhD-0"/>
                <mxCell id="PrXgXA7qm4J3uyecdOhD-1" parent="PrXgXA7qm4J3uyecdOhD-0"/>
                <mxCell id="PrXgXA7qm4J3uyecdOhD-67" value="bookings" style="shape=table;startSize=30;container=1;collapsible=1;childLayout=tableLayout;fixedRows=1;rowLines=0;fontStyle=1;align=center;resizeLast=1;sketch=0;labelBackgroundColor=none;labelBorderColor=none;html=1;fillColor=#A8DADC;strokeColor=#457B9D;fontColor=#1D3557;" parent="PrXgXA7qm4J3uyecdOhD-1" vertex="1">
                    <mxGeometry x="140" y="290" width="180" height="160" as="geometry"/>
                </mxCell>
                <mxCell id="PrXgXA7qm4J3uyecdOhD-68" value="" style="shape=partialRectangle;collapsible=0;dropTarget=0;pointerEvents=0;fillColor=none;top=0;left=0;bottom=0;right=0;points=[[0,0.5],[1,0.5]];portConstraint=eastwest;labelBackgroundColor=none;labelBorderColor=none;html=1;strokeColor=#457B9D;fontColor=#1D3557;" parent="PrXgXA7qm4J3uyecdOhD-67" vertex="1">
                    <mxGeometry y="30" width="180" height="30" as="geometry"/>
                </mxCell>
                <mxCell id="PrXgXA7qm4J3uyecdOhD-69" value="PK" style="shape=partialRectangle;connectable=0;fillColor=none;top=0;left=0;bottom=0;right=0;fontStyle=1;overflow=hidden;labelBackgroundColor=none;labelBorderColor=none;html=1;strokeColor=#457B9D;fontColor=#1D3557;" parent="PrXgXA7qm4J3uyecdOhD-68" vertex="1">
                    <mxGeometry width="60" height="30" as="geometry"/>
                </mxCell>
                <mxCell id="PrXgXA7qm4J3uyecdOhD-70" value="ID" style="shape=partialRectangle;connectable=0;fillColor=none;top=0;left=0;bottom=0;right=0;align=left;spacingLeft=6;fontStyle=5;overflow=hidden;labelBackgroundColor=none;labelBorderColor=none;html=1;strokeColor=#457B9D;fontColor=#1D3557;" parent="PrXgXA7qm4J3uyecdOhD-68" vertex="1">
                    <mxGeometry x="60" width="120" height="30" as="geometry"/>
                </mxCell>
                <mxCell id="PrXgXA7qm4J3uyecdOhD-71" value="" style="shape=partialRectangle;collapsible=0;dropTarget=0;pointerEvents=0;fillColor=none;top=0;left=0;bottom=1;right=0;points=[[0,0.5],[1,0.5]];portConstraint=eastwest;labelBackgroundColor=none;labelBorderColor=none;html=1;strokeColor=#457B9D;fontColor=#1D3557;" parent="PrXgXA7qm4J3uyecdOhD-67" vertex="1">
                    <mxGeometry y="60" width="180" height="30" as="geometry"/>
                </mxCell>
                <mxCell id="PrXgXA7qm4J3uyecdOhD-72" value="FK" style="shape=partialRectangle;connectable=0;fillColor=none;top=0;left=0;bottom=0;right=0;fontStyle=1;overflow=hidden;labelBackgroundColor=none;labelBorderColor=none;html=1;strokeColor=#457B9D;fontColor=#1D3557;" parent="PrXgXA7qm4J3uyecdOhD-71" vertex="1">
                    <mxGeometry width="60" height="30" as="geometry"/>
                </mxCell>
                <mxCell id="PrXgXA7qm4J3uyecdOhD-73" value="user_id" style="shape=partialRectangle;connectable=0;fillColor=none;top=0;left=0;bottom=0;right=0;align=left;spacingLeft=6;fontStyle=5;overflow=hidden;labelBackgroundColor=none;labelBorderColor=none;html=1;strokeColor=#457B9D;fontColor=#1D3557;" parent="PrXgXA7qm4J3uyecdOhD-71" vertex="1">
                    <mxGeometry x="60" width="120" height="30" as="geometry"/>
                </mxCell>
                <mxCell id="PrXgXA7qm4J3uyecdOhD-74" value="" style="shape=partialRectangle;collapsible=0;dropTarget=0;pointerEvents=0;fillColor=none;top=0;left=0;bottom=0;right=0;points=[[0,0.5],[1,0.5]];portConstraint=eastwest;labelBackgroundColor=none;labelBorderColor=none;html=1;strokeColor=#457B9D;fontColor=#1D3557;" parent="PrXgXA7qm4J3uyecdOhD-67" vertex="1">
                    <mxGeometry y="90" width="180" height="30" as="geometry"/>
                </mxCell>
                <mxCell id="PrXgXA7qm4J3uyecdOhD-75" value="" style="shape=partialRectangle;connectable=0;fillColor=none;top=0;left=0;bottom=0;right=0;editable=1;overflow=hidden;labelBackgroundColor=none;labelBorderColor=none;html=1;strokeColor=#457B9D;fontColor=#1D3557;" parent="PrXgXA7qm4J3uyecdOhD-74" vertex="1">
                    <mxGeometry width="60" height="30" as="geometry"/>
                </mxCell>
                <mxCell id="PrXgXA7qm4J3uyecdOhD-76" value="email_confirmation" style="shape=partialRectangle;connectable=0;fillColor=none;top=0;left=0;bottom=0;right=0;align=left;spacingLeft=6;overflow=hidden;labelBackgroundColor=none;labelBorderColor=none;html=1;strokeColor=#457B9D;fontColor=#1D3557;" parent="PrXgXA7qm4J3uyecdOhD-74" vertex="1">
                    <mxGeometry x="60" width="120" height="30" as="geometry"/>
                </mxCell>
                <mxCell id="PrXgXA7qm4J3uyecdOhD-77" value="" style="shape=partialRectangle;collapsible=0;dropTarget=0;pointerEvents=0;fillColor=none;top=0;left=0;bottom=0;right=0;points=[[0,0.5],[1,0.5]];portConstraint=eastwest;labelBackgroundColor=none;labelBorderColor=none;html=1;strokeColor=#457B9D;fontColor=#1D3557;" parent="PrXgXA7qm4J3uyecdOhD-67" vertex="1">
                    <mxGeometry y="120" width="180" height="30" as="geometry"/>
                </mxCell>
                <mxCell id="PrXgXA7qm4J3uyecdOhD-78" value="" style="shape=partialRectangle;connectable=0;fillColor=none;top=0;left=0;bottom=0;right=0;editable=1;overflow=hidden;labelBackgroundColor=none;labelBorderColor=none;html=1;strokeColor=#457B9D;fontColor=#1D3557;" parent="PrXgXA7qm4J3uyecdOhD-77" vertex="1">
                    <mxGeometry width="60" height="30" as="geometry"/>
                </mxCell>
                <mxCell id="PrXgXA7qm4J3uyecdOhD-79" value="status" style="shape=partialRectangle;connectable=0;top=0;left=0;bottom=0;right=0;align=left;spacingLeft=6;overflow=hidden;labelBackgroundColor=none;labelBorderColor=none;html=1;strokeColor=#56517e;fillColor=#d0cee2;" parent="PrXgXA7qm4J3uyecdOhD-77" vertex="1">
                    <mxGeometry x="60" width="120" height="30" as="geometry"/>
                </mxCell>
                <mxCell id="PrXgXA7qm4J3uyecdOhD-80" value="users" style="shape=table;startSize=30;container=1;collapsible=1;childLayout=tableLayout;fixedRows=1;rowLines=0;fontStyle=1;align=center;resizeLast=1;sketch=0;labelBackgroundColor=none;labelBorderColor=none;html=1;fillColor=#A8DADC;strokeColor=#457B9D;fontColor=#1D3557;" parent="PrXgXA7qm4J3uyecdOhD-1" vertex="1">
                    <mxGeometry x="370" y="500" width="180" height="340" as="geometry">
                        <mxRectangle x="390" y="1530" width="60" height="30" as="alternateBounds"/>
                    </mxGeometry>
                </mxCell>
                <mxCell id="PrXgXA7qm4J3uyecdOhD-81" value="" style="shape=partialRectangle;collapsible=0;dropTarget=0;pointerEvents=0;fillColor=none;top=0;left=0;bottom=1;right=0;points=[[0,0.5],[1,0.5]];portConstraint=eastwest;labelBackgroundColor=none;labelBorderColor=none;html=1;strokeColor=#457B9D;fontColor=#1D3557;" parent="PrXgXA7qm4J3uyecdOhD-80" vertex="1">
                    <mxGeometry y="30" width="180" height="30" as="geometry"/>
                </mxCell>
                <mxCell id="PrXgXA7qm4J3uyecdOhD-82" value="PK" style="shape=partialRectangle;connectable=0;fillColor=none;top=0;left=0;bottom=0;right=0;fontStyle=1;overflow=hidden;labelBackgroundColor=none;labelBorderColor=none;html=1;strokeColor=#457B9D;fontColor=#1D3557;" parent="PrXgXA7qm4J3uyecdOhD-81" vertex="1">
                    <mxGeometry width="30" height="30" as="geometry"/>
                </mxCell>
                <mxCell id="PrXgXA7qm4J3uyecdOhD-83" value="ID" style="shape=partialRectangle;connectable=0;fillColor=none;top=0;left=0;bottom=0;right=0;align=left;spacingLeft=6;fontStyle=5;overflow=hidden;labelBackgroundColor=none;labelBorderColor=none;html=1;strokeColor=#457B9D;fontColor=#1D3557;" parent="PrXgXA7qm4J3uyecdOhD-81" vertex="1">
                    <mxGeometry x="30" width="150" height="30" as="geometry"/>
                </mxCell>
                <mxCell id="PrXgXA7qm4J3uyecdOhD-84" value="" style="shape=partialRectangle;collapsible=0;dropTarget=0;pointerEvents=0;fillColor=none;top=0;left=0;bottom=0;right=0;points=[[0,0.5],[1,0.5]];portConstraint=eastwest;labelBackgroundColor=none;labelBorderColor=none;html=1;strokeColor=#457B9D;fontColor=#1D3557;" parent="PrXgXA7qm4J3uyecdOhD-80" vertex="1">
                    <mxGeometry y="60" width="180" height="30" as="geometry"/>
                </mxCell>
                <mxCell id="PrXgXA7qm4J3uyecdOhD-85" value="" style="shape=partialRectangle;connectable=0;fillColor=none;top=0;left=0;bottom=0;right=0;editable=1;overflow=hidden;labelBackgroundColor=none;labelBorderColor=none;html=1;strokeColor=#457B9D;fontColor=#1D3557;" parent="PrXgXA7qm4J3uyecdOhD-84" vertex="1">
                    <mxGeometry width="30" height="30" as="geometry"/>
                </mxCell>
                <mxCell id="PrXgXA7qm4J3uyecdOhD-86" value="name" style="shape=partialRectangle;connectable=0;fillColor=none;top=0;left=0;bottom=0;right=0;align=left;spacingLeft=6;overflow=hidden;labelBackgroundColor=none;labelBorderColor=none;html=1;strokeColor=#457B9D;fontColor=#1D3557;" parent="PrXgXA7qm4J3uyecdOhD-84" vertex="1">
                    <mxGeometry x="30" width="150" height="30" as="geometry"/>
                </mxCell>
                <mxCell id="PrXgXA7qm4J3uyecdOhD-87" value="" style="shape=partialRectangle;collapsible=0;dropTarget=0;pointerEvents=0;fillColor=none;top=0;left=0;bottom=0;right=0;points=[[0,0.5],[1,0.5]];portConstraint=eastwest;labelBackgroundColor=none;labelBorderColor=none;html=1;strokeColor=#457B9D;fontColor=#1D3557;" parent="PrXgXA7qm4J3uyecdOhD-80" vertex="1">
                    <mxGeometry y="90" width="180" height="30" as="geometry"/>
                </mxCell>
                <mxCell id="PrXgXA7qm4J3uyecdOhD-88" value="" style="shape=partialRectangle;connectable=0;fillColor=none;top=0;left=0;bottom=0;right=0;editable=1;overflow=hidden;labelBackgroundColor=none;labelBorderColor=none;html=1;strokeColor=#457B9D;fontColor=#1D3557;" parent="PrXgXA7qm4J3uyecdOhD-87" vertex="1">
                    <mxGeometry width="30" height="30" as="geometry"/>
                </mxCell>
                <mxCell id="PrXgXA7qm4J3uyecdOhD-89" value="username" style="shape=partialRectangle;connectable=0;fillColor=none;top=0;left=0;bottom=0;right=0;align=left;spacingLeft=6;overflow=hidden;labelBackgroundColor=none;labelBorderColor=none;html=1;strokeColor=#457B9D;fontColor=#1D3557;" parent="PrXgXA7qm4J3uyecdOhD-87" vertex="1">
                    <mxGeometry x="30" width="150" height="30" as="geometry"/>
                </mxCell>
                <mxCell id="PrXgXA7qm4J3uyecdOhD-90" value="" style="shape=partialRectangle;collapsible=0;dropTarget=0;pointerEvents=0;fillColor=none;top=0;left=0;bottom=0;right=0;points=[[0,0.5],[1,0.5]];portConstraint=eastwest;labelBackgroundColor=none;labelBorderColor=none;html=1;strokeColor=#457B9D;fontColor=#1D3557;" parent="PrXgXA7qm4J3uyecdOhD-80" vertex="1">
                    <mxGeometry y="120" width="180" height="30" as="geometry"/>
                </mxCell>
                <mxCell id="PrXgXA7qm4J3uyecdOhD-91" value="" style="shape=partialRectangle;connectable=0;fillColor=none;top=0;left=0;bottom=0;right=0;editable=1;overflow=hidden;labelBackgroundColor=none;labelBorderColor=none;html=1;strokeColor=#457B9D;fontColor=#1D3557;" parent="PrXgXA7qm4J3uyecdOhD-90" vertex="1">
                    <mxGeometry width="30" height="30" as="geometry"/>
                </mxCell>
                <mxCell id="PrXgXA7qm4J3uyecdOhD-92" value="email" style="shape=partialRectangle;connectable=0;fillColor=none;top=0;left=0;bottom=0;right=0;align=left;spacingLeft=6;overflow=hidden;labelBackgroundColor=none;labelBorderColor=none;html=1;strokeColor=#457B9D;fontColor=#1D3557;" parent="PrXgXA7qm4J3uyecdOhD-90" vertex="1">
                    <mxGeometry x="30" width="150" height="30" as="geometry"/>
                </mxCell>
                <mxCell id="PrXgXA7qm4J3uyecdOhD-93" value="" style="shape=partialRectangle;collapsible=0;dropTarget=0;pointerEvents=0;fillColor=none;top=0;left=0;bottom=0;right=0;points=[[0,0.5],[1,0.5]];portConstraint=eastwest;labelBackgroundColor=none;labelBorderColor=none;html=1;strokeColor=#457B9D;fontColor=#1D3557;" parent="PrXgXA7qm4J3uyecdOhD-80" vertex="1">
                    <mxGeometry y="150" width="180" height="30" as="geometry"/>
                </mxCell>
                <mxCell id="PrXgXA7qm4J3uyecdOhD-94" value="" style="shape=partialRectangle;connectable=0;fillColor=none;top=0;left=0;bottom=0;right=0;editable=1;overflow=hidden;labelBackgroundColor=none;labelBorderColor=none;html=1;strokeColor=#457B9D;fontColor=#1D3557;" parent="PrXgXA7qm4J3uyecdOhD-93" vertex="1">
                    <mxGeometry width="30" height="30" as="geometry"/>
                </mxCell>
                <mxCell id="PrXgXA7qm4J3uyecdOhD-95" value="password" style="shape=partialRectangle;connectable=0;fillColor=none;top=0;left=0;bottom=0;right=0;align=left;spacingLeft=6;overflow=hidden;labelBackgroundColor=none;labelBorderColor=none;html=1;strokeColor=#457B9D;fontColor=#1D3557;" parent="PrXgXA7qm4J3uyecdOhD-93" vertex="1">
                    <mxGeometry x="30" width="150" height="30" as="geometry"/>
                </mxCell>
                <mxCell id="PrXgXA7qm4J3uyecdOhD-96" value="" style="shape=partialRectangle;collapsible=0;dropTarget=0;pointerEvents=0;fillColor=none;top=0;left=0;bottom=0;right=0;points=[[0,0.5],[1,0.5]];portConstraint=eastwest;labelBackgroundColor=none;labelBorderColor=none;html=1;strokeColor=#457B9D;fontColor=#1D3557;" parent="PrXgXA7qm4J3uyecdOhD-80" vertex="1">
                    <mxGeometry y="180" width="180" height="30" as="geometry"/>
                </mxCell>
                <mxCell id="PrXgXA7qm4J3uyecdOhD-97" value="" style="shape=partialRectangle;connectable=0;fillColor=none;top=0;left=0;bottom=0;right=0;editable=1;overflow=hidden;labelBackgroundColor=none;labelBorderColor=none;html=1;strokeColor=#457B9D;fontColor=#1D3557;" parent="PrXgXA7qm4J3uyecdOhD-96" vertex="1">
                    <mxGeometry width="30" height="30" as="geometry"/>
                </mxCell>
                <mxCell id="PrXgXA7qm4J3uyecdOhD-98" value="remember_token" style="shape=partialRectangle;connectable=0;fillColor=none;top=0;left=0;bottom=0;right=0;align=left;spacingLeft=6;overflow=hidden;labelBackgroundColor=none;labelBorderColor=none;html=1;strokeColor=#457B9D;fontColor=#1D3557;" parent="PrXgXA7qm4J3uyecdOhD-96" vertex="1">
                    <mxGeometry x="30" width="150" height="30" as="geometry"/>
                </mxCell>
                <mxCell id="PrXgXA7qm4J3uyecdOhD-99" value="" style="shape=partialRectangle;collapsible=0;dropTarget=0;pointerEvents=0;fillColor=none;top=0;left=0;bottom=0;right=0;points=[[0,0.5],[1,0.5]];portConstraint=eastwest;labelBackgroundColor=none;labelBorderColor=none;html=1;strokeColor=#457B9D;fontColor=#1D3557;" parent="PrXgXA7qm4J3uyecdOhD-80" vertex="1">
                    <mxGeometry y="210" width="180" height="30" as="geometry"/>
                </mxCell>
                <mxCell id="PrXgXA7qm4J3uyecdOhD-100" value="" style="shape=partialRectangle;connectable=0;fillColor=none;top=0;left=0;bottom=0;right=0;editable=1;overflow=hidden;labelBackgroundColor=none;labelBorderColor=none;html=1;strokeColor=#457B9D;fontColor=#1D3557;" parent="PrXgXA7qm4J3uyecdOhD-99" vertex="1">
                    <mxGeometry width="30" height="30" as="geometry"/>
                </mxCell>
                <mxCell id="PrXgXA7qm4J3uyecdOhD-101" value="country" style="shape=partialRectangle;connectable=0;fillColor=none;top=0;left=0;bottom=0;right=0;align=left;spacingLeft=6;overflow=hidden;labelBackgroundColor=none;labelBorderColor=none;html=1;strokeColor=#457B9D;fontColor=#1D3557;" parent="PrXgXA7qm4J3uyecdOhD-99" vertex="1">
                    <mxGeometry x="30" width="150" height="30" as="geometry"/>
                </mxCell>
                <mxCell id="PrXgXA7qm4J3uyecdOhD-102" value="" style="shape=partialRectangle;collapsible=0;dropTarget=0;pointerEvents=0;fillColor=none;top=0;left=0;bottom=0;right=0;points=[[0,0.5],[1,0.5]];portConstraint=eastwest;labelBackgroundColor=none;labelBorderColor=none;html=1;strokeColor=#457B9D;fontColor=#1D3557;" parent="PrXgXA7qm4J3uyecdOhD-80" vertex="1">
                    <mxGeometry y="240" width="180" height="30" as="geometry"/>
                </mxCell>
                <mxCell id="PrXgXA7qm4J3uyecdOhD-103" value="" style="shape=partialRectangle;connectable=0;fillColor=none;top=0;left=0;bottom=0;right=0;editable=1;overflow=hidden;labelBackgroundColor=none;labelBorderColor=none;html=1;strokeColor=#457B9D;fontColor=#1D3557;" parent="PrXgXA7qm4J3uyecdOhD-102" vertex="1">
                    <mxGeometry width="30" height="30" as="geometry"/>
                </mxCell>
                <mxCell id="PrXgXA7qm4J3uyecdOhD-104" value="state" style="shape=partialRectangle;connectable=0;fillColor=none;top=0;left=0;bottom=0;right=0;align=left;spacingLeft=6;overflow=hidden;labelBackgroundColor=none;labelBorderColor=none;html=1;strokeColor=#457B9D;fontColor=#1D3557;" parent="PrXgXA7qm4J3uyecdOhD-102" vertex="1">
                    <mxGeometry x="30" width="150" height="30" as="geometry"/>
                </mxCell>
                <mxCell id="PrXgXA7qm4J3uyecdOhD-105" value="" style="shape=partialRectangle;collapsible=0;dropTarget=0;pointerEvents=0;fillColor=none;top=0;left=0;bottom=0;right=0;points=[[0,0.5],[1,0.5]];portConstraint=eastwest;labelBackgroundColor=none;labelBorderColor=none;html=1;strokeColor=#457B9D;fontColor=#1D3557;" parent="PrXgXA7qm4J3uyecdOhD-80" vertex="1">
                    <mxGeometry y="270" width="180" height="30" as="geometry"/>
                </mxCell>
                <mxCell id="PrXgXA7qm4J3uyecdOhD-106" value="" style="shape=partialRectangle;connectable=0;fillColor=none;top=0;left=0;bottom=0;right=0;editable=1;overflow=hidden;labelBackgroundColor=none;labelBorderColor=none;html=1;strokeColor=#457B9D;fontColor=#1D3557;" parent="PrXgXA7qm4J3uyecdOhD-105" vertex="1">
                    <mxGeometry width="30" height="30" as="geometry"/>
                </mxCell>
                <mxCell id="PrXgXA7qm4J3uyecdOhD-107" value="address ?" style="shape=partialRectangle;connectable=0;fillColor=none;top=0;left=0;bottom=0;right=0;align=left;spacingLeft=6;overflow=hidden;labelBackgroundColor=none;labelBorderColor=none;html=1;strokeColor=#457B9D;fontColor=#1D3557;" parent="PrXgXA7qm4J3uyecdOhD-105" vertex="1">
                    <mxGeometry x="30" width="150" height="30" as="geometry"/>
                </mxCell>
                <mxCell id="_tiEiwdggxXD2Xx2THKf-0" value="" style="shape=partialRectangle;collapsible=0;dropTarget=0;pointerEvents=0;fillColor=none;top=0;left=0;bottom=0;right=0;points=[[0,0.5],[1,0.5]];portConstraint=eastwest;labelBackgroundColor=none;labelBorderColor=none;html=1;strokeColor=#457B9D;fontColor=#1D3557;" parent="PrXgXA7qm4J3uyecdOhD-80" vertex="1">
                    <mxGeometry y="300" width="180" height="30" as="geometry"/>
                </mxCell>
                <mxCell id="_tiEiwdggxXD2Xx2THKf-1" value="" style="shape=partialRectangle;connectable=0;fillColor=none;top=0;left=0;bottom=0;right=0;editable=1;overflow=hidden;labelBackgroundColor=none;labelBorderColor=none;html=1;strokeColor=#457B9D;fontColor=#1D3557;" parent="_tiEiwdggxXD2Xx2THKf-0" vertex="1">
                    <mxGeometry width="30" height="30" as="geometry"/>
                </mxCell>
                <mxCell id="_tiEiwdggxXD2Xx2THKf-2" value="is_admin" style="shape=partialRectangle;connectable=0;fillColor=none;top=0;left=0;bottom=0;right=0;align=left;spacingLeft=6;overflow=hidden;labelBackgroundColor=none;labelBorderColor=none;html=1;strokeColor=#457B9D;fontColor=#1D3557;" parent="_tiEiwdggxXD2Xx2THKf-0" vertex="1">
                    <mxGeometry x="30" width="150" height="30" as="geometry"/>
                </mxCell>
                <mxCell id="PrXgXA7qm4J3uyecdOhD-108" value="statuses" style="shape=table;startSize=30;container=1;collapsible=1;childLayout=tableLayout;fixedRows=1;rowLines=0;fontStyle=1;align=center;resizeLast=1;sketch=0;labelBackgroundColor=none;labelBorderColor=none;html=1;fillColor=#A8DADC;strokeColor=#457B9D;fontColor=#1D3557;" parent="PrXgXA7qm4J3uyecdOhD-1" vertex="1">
                    <mxGeometry x="370" y="100" width="180" height="240" as="geometry"/>
                </mxCell>
                <mxCell id="PrXgXA7qm4J3uyecdOhD-109" value="" style="shape=partialRectangle;collapsible=0;dropTarget=0;pointerEvents=0;fillColor=none;top=0;left=0;bottom=0;right=0;points=[[0,0.5],[1,0.5]];portConstraint=eastwest;labelBackgroundColor=none;labelBorderColor=none;html=1;strokeColor=#457B9D;fontColor=#1D3557;" parent="PrXgXA7qm4J3uyecdOhD-108" vertex="1">
                    <mxGeometry y="30" width="180" height="30" as="geometry"/>
                </mxCell>
                <mxCell id="PrXgXA7qm4J3uyecdOhD-110" value="PK" style="shape=partialRectangle;connectable=0;fillColor=none;top=0;left=0;bottom=0;right=0;fontStyle=1;overflow=hidden;labelBackgroundColor=none;labelBorderColor=none;html=1;strokeColor=#457B9D;fontColor=#1D3557;" parent="PrXgXA7qm4J3uyecdOhD-109" vertex="1">
                    <mxGeometry width="60" height="30" as="geometry"/>
                </mxCell>
                <mxCell id="PrXgXA7qm4J3uyecdOhD-111" value="ID" style="shape=partialRectangle;connectable=0;fillColor=none;top=0;left=0;bottom=0;right=0;align=left;spacingLeft=6;fontStyle=5;overflow=hidden;labelBackgroundColor=none;labelBorderColor=none;html=1;strokeColor=#457B9D;fontColor=#1D3557;" parent="PrXgXA7qm4J3uyecdOhD-109" vertex="1">
                    <mxGeometry x="60" width="120" height="30" as="geometry"/>
                </mxCell>
                <mxCell id="PrXgXA7qm4J3uyecdOhD-112" value="" style="shape=partialRectangle;collapsible=0;dropTarget=0;pointerEvents=0;fillColor=none;top=0;left=0;bottom=1;right=0;points=[[0,0.5],[1,0.5]];portConstraint=eastwest;labelBackgroundColor=none;labelBorderColor=none;html=1;strokeColor=#457B9D;fontColor=#1D3557;" parent="PrXgXA7qm4J3uyecdOhD-108" vertex="1">
                    <mxGeometry y="60" width="180" height="30" as="geometry"/>
                </mxCell>
                <mxCell id="PrXgXA7qm4J3uyecdOhD-113" value="FK" style="shape=partialRectangle;connectable=0;fillColor=none;top=0;left=0;bottom=0;right=0;fontStyle=1;overflow=hidden;labelBackgroundColor=none;labelBorderColor=none;html=1;strokeColor=#457B9D;fontColor=#1D3557;" parent="PrXgXA7qm4J3uyecdOhD-112" vertex="1">
                    <mxGeometry width="60" height="30" as="geometry"/>
                </mxCell>
                <mxCell id="PrXgXA7qm4J3uyecdOhD-114" value="booking_id" style="shape=partialRectangle;connectable=0;fillColor=none;top=0;left=0;bottom=0;right=0;align=left;spacingLeft=6;fontStyle=5;overflow=hidden;labelBackgroundColor=none;labelBorderColor=none;html=1;strokeColor=#457B9D;fontColor=#1D3557;" parent="PrXgXA7qm4J3uyecdOhD-112" vertex="1">
                    <mxGeometry x="60" width="120" height="30" as="geometry"/>
                </mxCell>
                <mxCell id="PrXgXA7qm4J3uyecdOhD-115" value="" style="shape=partialRectangle;collapsible=0;dropTarget=0;pointerEvents=0;fillColor=none;top=0;left=0;bottom=0;right=0;points=[[0,0.5],[1,0.5]];portConstraint=eastwest;labelBackgroundColor=none;labelBorderColor=none;html=1;strokeColor=#457B9D;fontColor=#1D3557;" parent="PrXgXA7qm4J3uyecdOhD-108" vertex="1">
                    <mxGeometry y="90" width="180" height="30" as="geometry"/>
                </mxCell>
                <mxCell id="PrXgXA7qm4J3uyecdOhD-116" value="" style="shape=partialRectangle;connectable=0;fillColor=none;top=0;left=0;bottom=0;right=0;editable=1;overflow=hidden;labelBackgroundColor=none;labelBorderColor=none;html=1;strokeColor=#457B9D;fontColor=#1D3557;" parent="PrXgXA7qm4J3uyecdOhD-115" vertex="1">
                    <mxGeometry width="60" height="30" as="geometry"/>
                </mxCell>
                <mxCell id="PrXgXA7qm4J3uyecdOhD-117" value="booking_date" style="shape=partialRectangle;connectable=0;fillColor=none;top=0;left=0;bottom=0;right=0;align=left;spacingLeft=6;overflow=hidden;labelBackgroundColor=none;labelBorderColor=none;html=1;strokeColor=#457B9D;fontColor=#1D3557;" parent="PrXgXA7qm4J3uyecdOhD-115" vertex="1">
                    <mxGeometry x="60" width="120" height="30" as="geometry"/>
                </mxCell>
                <mxCell id="PrXgXA7qm4J3uyecdOhD-118" value="" style="shape=partialRectangle;collapsible=0;dropTarget=0;pointerEvents=0;fillColor=none;top=0;left=0;bottom=0;right=0;points=[[0,0.5],[1,0.5]];portConstraint=eastwest;labelBackgroundColor=none;labelBorderColor=none;html=1;strokeColor=#457B9D;fontColor=#1D3557;" parent="PrXgXA7qm4J3uyecdOhD-108" vertex="1">
                    <mxGeometry y="120" width="180" height="30" as="geometry"/>
                </mxCell>
                <mxCell id="PrXgXA7qm4J3uyecdOhD-119" value="" style="shape=partialRectangle;connectable=0;fillColor=none;top=0;left=0;bottom=0;right=0;editable=1;overflow=hidden;labelBackgroundColor=none;labelBorderColor=none;html=1;strokeColor=#457B9D;fontColor=#1D3557;" parent="PrXgXA7qm4J3uyecdOhD-118" vertex="1">
                    <mxGeometry width="60" height="30" as="geometry"/>
                </mxCell>
                <mxCell id="PrXgXA7qm4J3uyecdOhD-120" value="return_date ?" style="shape=partialRectangle;connectable=0;fillColor=none;top=0;left=0;bottom=0;right=0;align=left;spacingLeft=6;overflow=hidden;labelBackgroundColor=none;labelBorderColor=none;html=1;strokeColor=#457B9D;fontColor=#1D3557;" parent="PrXgXA7qm4J3uyecdOhD-118" vertex="1">
                    <mxGeometry x="60" width="120" height="30" as="geometry"/>
                </mxCell>
                <mxCell id="PrXgXA7qm4J3uyecdOhD-124" value="" style="shape=partialRectangle;collapsible=0;dropTarget=0;pointerEvents=0;fillColor=none;top=0;left=0;bottom=0;right=0;points=[[0,0.5],[1,0.5]];portConstraint=eastwest;labelBackgroundColor=none;labelBorderColor=none;html=1;strokeColor=#457B9D;fontColor=#1D3557;" parent="PrXgXA7qm4J3uyecdOhD-108" vertex="1">
                    <mxGeometry y="150" width="180" height="30" as="geometry"/>
                </mxCell>
                <mxCell id="PrXgXA7qm4J3uyecdOhD-125" value="" style="shape=partialRectangle;connectable=0;fillColor=none;top=0;left=0;bottom=0;right=0;editable=1;overflow=hidden;labelBackgroundColor=none;labelBorderColor=none;html=1;strokeColor=#457B9D;fontColor=#1D3557;" parent="PrXgXA7qm4J3uyecdOhD-124" vertex="1">
                    <mxGeometry width="60" height="30" as="geometry"/>
                </mxCell>
                <mxCell id="PrXgXA7qm4J3uyecdOhD-126" value="&lt;font color=&quot;#6e6e6e&quot;&gt;(booking_status)&lt;/font&gt;" style="shape=partialRectangle;connectable=0;top=0;left=0;bottom=0;right=0;align=left;spacingLeft=6;overflow=hidden;labelBackgroundColor=none;labelBorderColor=none;html=1;fillColor=#d0cee2;strokeColor=#56517e;fontStyle=4" parent="PrXgXA7qm4J3uyecdOhD-124" vertex="1">
                    <mxGeometry x="60" width="120" height="30" as="geometry"/>
                </mxCell>
                <mxCell id="PrXgXA7qm4J3uyecdOhD-133" value="" style="shape=partialRectangle;collapsible=0;dropTarget=0;pointerEvents=0;fillColor=none;top=0;left=0;bottom=0;right=0;points=[[0,0.5],[1,0.5]];portConstraint=eastwest;labelBackgroundColor=none;labelBorderColor=none;html=1;strokeColor=#457B9D;fontColor=#1D3557;" parent="PrXgXA7qm4J3uyecdOhD-108" vertex="1">
                    <mxGeometry y="180" width="180" height="30" as="geometry"/>
                </mxCell>
                <mxCell id="PrXgXA7qm4J3uyecdOhD-134" value="" style="shape=partialRectangle;connectable=0;fillColor=none;top=0;left=0;bottom=0;right=0;editable=1;overflow=hidden;labelBackgroundColor=none;labelBorderColor=none;html=1;strokeColor=#457B9D;fontColor=#1D3557;" parent="PrXgXA7qm4J3uyecdOhD-133" vertex="1">
                    <mxGeometry width="60" height="30" as="geometry"/>
                </mxCell>
                <mxCell id="PrXgXA7qm4J3uyecdOhD-135" value="email_notofication_lender (booking confirmation/ notice)" style="shape=partialRectangle;connectable=0;fillColor=none;top=0;left=0;bottom=0;right=0;align=left;spacingLeft=6;overflow=hidden;labelBackgroundColor=none;labelBorderColor=none;html=1;strokeColor=#457B9D;fontColor=#1D3557;" parent="PrXgXA7qm4J3uyecdOhD-133" vertex="1">
                    <mxGeometry x="60" width="120" height="30" as="geometry"/>
                </mxCell>
                <mxCell id="MCleI-rzZkDcenhgw0AU-0" value="" style="shape=partialRectangle;collapsible=0;dropTarget=0;pointerEvents=0;fillColor=none;top=0;left=0;bottom=0;right=0;points=[[0,0.5],[1,0.5]];portConstraint=eastwest;labelBackgroundColor=none;labelBorderColor=none;html=1;strokeColor=#457B9D;fontColor=#1D3557;" parent="PrXgXA7qm4J3uyecdOhD-108" vertex="1">
                    <mxGeometry y="210" width="180" height="30" as="geometry"/>
                </mxCell>
                <mxCell id="MCleI-rzZkDcenhgw0AU-1" value="" style="shape=partialRectangle;connectable=0;fillColor=none;top=0;left=0;bottom=0;right=0;editable=1;overflow=hidden;labelBackgroundColor=none;labelBorderColor=none;html=1;strokeColor=#457B9D;fontColor=#1D3557;" parent="MCleI-rzZkDcenhgw0AU-0" vertex="1">
                    <mxGeometry width="60" height="30" as="geometry"/>
                </mxCell>
                <mxCell id="MCleI-rzZkDcenhgw0AU-2" value="available" style="shape=partialRectangle;connectable=0;fillColor=none;top=0;left=0;bottom=0;right=0;align=left;spacingLeft=6;overflow=hidden;labelBackgroundColor=none;labelBorderColor=none;html=1;strokeColor=#457B9D;fontColor=#1D3557;" parent="MCleI-rzZkDcenhgw0AU-0" vertex="1">
                    <mxGeometry x="60" width="120" height="30" as="geometry"/>
                </mxCell>
                <mxCell id="PrXgXA7qm4J3uyecdOhD-136" value="items (title_user)" style="shape=table;startSize=30;container=1;collapsible=1;childLayout=tableLayout;fixedRows=1;rowLines=0;fontStyle=1;align=center;resizeLast=1;labelBackgroundColor=none;sketch=0;labelBorderColor=none;html=1;fillColor=#A8DADC;strokeColor=#457B9D;fontColor=#1D3557;" parent="PrXgXA7qm4J3uyecdOhD-1" vertex="1">
                    <mxGeometry x="630" y="230" width="230" height="239" as="geometry"/>
                </mxCell>
                <mxCell id="PrXgXA7qm4J3uyecdOhD-140" value="" style="shape=partialRectangle;collapsible=0;dropTarget=0;pointerEvents=0;fillColor=none;top=0;left=0;bottom=0;right=0;points=[[0,0.5],[1,0.5]];portConstraint=eastwest;labelBackgroundColor=none;labelBorderColor=none;html=1;strokeColor=#457B9D;fontColor=#1D3557;" parent="PrXgXA7qm4J3uyecdOhD-136" vertex="1">
                    <mxGeometry y="30" width="230" height="30" as="geometry"/>
                </mxCell>
                <mxCell id="PrXgXA7qm4J3uyecdOhD-141" value="PK,FK1" style="shape=partialRectangle;connectable=0;fillColor=none;top=0;left=0;bottom=0;right=0;fontStyle=1;overflow=hidden;labelBackgroundColor=none;labelBorderColor=none;html=1;strokeColor=#457B9D;fontColor=#1D3557;" parent="PrXgXA7qm4J3uyecdOhD-140" vertex="1">
                    <mxGeometry width="60" height="30" as="geometry"/>
                </mxCell>
                <mxCell id="PrXgXA7qm4J3uyecdOhD-142" value="title_id" style="shape=partialRectangle;connectable=0;fillColor=none;top=0;left=0;bottom=0;right=0;align=left;spacingLeft=6;fontStyle=5;overflow=hidden;labelBackgroundColor=none;labelBorderColor=none;html=1;strokeColor=#457B9D;fontColor=#1D3557;" parent="PrXgXA7qm4J3uyecdOhD-140" vertex="1">
                    <mxGeometry x="60" width="170" height="30" as="geometry"/>
                </mxCell>
                <mxCell id="PrXgXA7qm4J3uyecdOhD-143" value="" style="shape=partialRectangle;collapsible=0;dropTarget=0;pointerEvents=0;fillColor=none;top=0;left=0;bottom=0;right=0;points=[[0,0.5],[1,0.5]];portConstraint=eastwest;labelBackgroundColor=none;labelBorderColor=none;html=1;strokeColor=#457B9D;fontColor=#1D3557;" parent="PrXgXA7qm4J3uyecdOhD-136" vertex="1">
                    <mxGeometry y="60" width="230" height="30" as="geometry"/>
                </mxCell>
                <mxCell id="PrXgXA7qm4J3uyecdOhD-144" value="FK2" style="shape=partialRectangle;connectable=0;fillColor=none;top=0;left=0;bottom=0;right=0;fontStyle=1;overflow=hidden;labelBackgroundColor=none;labelBorderColor=none;html=1;strokeColor=#457B9D;fontColor=#1D3557;" parent="PrXgXA7qm4J3uyecdOhD-143" vertex="1">
                    <mxGeometry width="60" height="30" as="geometry"/>
                </mxCell>
                <mxCell id="PrXgXA7qm4J3uyecdOhD-145" value="status_id" style="shape=partialRectangle;connectable=0;fillColor=none;top=0;left=0;bottom=0;right=0;align=left;spacingLeft=6;fontStyle=5;overflow=hidden;labelBackgroundColor=none;labelBorderColor=none;html=1;strokeColor=#457B9D;fontColor=#1D3557;" parent="PrXgXA7qm4J3uyecdOhD-143" vertex="1">
                    <mxGeometry x="60" width="170" height="30" as="geometry"/>
                </mxCell>
                <mxCell id="PrXgXA7qm4J3uyecdOhD-146" value="" style="shape=partialRectangle;collapsible=0;dropTarget=0;pointerEvents=0;fillColor=none;top=0;left=0;bottom=0;right=0;points=[[0,0.5],[1,0.5]];portConstraint=eastwest;labelBackgroundColor=none;labelBorderColor=none;html=1;strokeColor=#457B9D;fontColor=#1D3557;" parent="PrXgXA7qm4J3uyecdOhD-136" vertex="1">
                    <mxGeometry y="90" width="230" height="30" as="geometry"/>
                </mxCell>
                <mxCell id="PrXgXA7qm4J3uyecdOhD-147" value="PK,FK3" style="shape=partialRectangle;connectable=0;fillColor=none;top=0;left=0;bottom=0;right=0;fontStyle=1;overflow=hidden;labelBackgroundColor=none;labelBorderColor=none;html=1;strokeColor=#457B9D;fontColor=#1D3557;" parent="PrXgXA7qm4J3uyecdOhD-146" vertex="1">
                    <mxGeometry width="60" height="30" as="geometry"/>
                </mxCell>
                <mxCell id="PrXgXA7qm4J3uyecdOhD-148" value="user_id" style="shape=partialRectangle;connectable=0;fillColor=none;top=0;left=0;bottom=0;right=0;align=left;spacingLeft=6;fontStyle=5;overflow=hidden;labelBackgroundColor=none;labelBorderColor=none;html=1;strokeColor=#457B9D;fontColor=#1D3557;" parent="PrXgXA7qm4J3uyecdOhD-146" vertex="1">
                    <mxGeometry x="60" width="170" height="30" as="geometry"/>
                </mxCell>
                <mxCell id="PrXgXA7qm4J3uyecdOhD-149" value="" style="shape=partialRectangle;collapsible=0;dropTarget=0;pointerEvents=0;fillColor=none;top=0;left=0;bottom=1;right=0;points=[[0,0.5],[1,0.5]];portConstraint=eastwest;labelBackgroundColor=none;labelBorderColor=none;html=1;strokeColor=#457B9D;fontColor=#1D3557;" parent="PrXgXA7qm4J3uyecdOhD-136" vertex="1">
                    <mxGeometry y="120" width="230" height="20" as="geometry"/>
                </mxCell>
                <mxCell id="PrXgXA7qm4J3uyecdOhD-150" value="" style="shape=partialRectangle;connectable=0;fillColor=none;top=0;left=0;bottom=0;right=0;fontStyle=1;overflow=hidden;labelBackgroundColor=none;labelBorderColor=none;html=1;strokeColor=#457B9D;fontColor=#1D3557;" parent="PrXgXA7qm4J3uyecdOhD-149" vertex="1">
                    <mxGeometry width="60" height="20" as="geometry"/>
                </mxCell>
                <mxCell id="PrXgXA7qm4J3uyecdOhD-151" value="" style="shape=partialRectangle;connectable=0;fillColor=none;top=0;left=0;bottom=0;right=0;align=left;spacingLeft=6;fontStyle=5;overflow=hidden;labelBackgroundColor=none;labelBorderColor=none;html=1;strokeColor=#457B9D;fontColor=#1D3557;" parent="PrXgXA7qm4J3uyecdOhD-149" vertex="1">
                    <mxGeometry x="60" width="170" height="20" as="geometry"/>
                </mxCell>
                <mxCell id="PrXgXA7qm4J3uyecdOhD-158" value="" style="shape=partialRectangle;collapsible=0;dropTarget=0;pointerEvents=0;fillColor=none;top=0;left=0;bottom=0;right=0;points=[[0,0.5],[1,0.5]];portConstraint=eastwest;labelBackgroundColor=none;labelBorderColor=none;html=1;strokeColor=#457B9D;fontColor=#1D3557;" parent="PrXgXA7qm4J3uyecdOhD-136" vertex="1">
                    <mxGeometry y="140" width="230" height="30" as="geometry"/>
                </mxCell>
                <mxCell id="PrXgXA7qm4J3uyecdOhD-159" value="" style="shape=partialRectangle;connectable=0;fillColor=none;top=0;left=0;bottom=0;right=0;editable=1;overflow=hidden;labelBackgroundColor=none;labelBorderColor=none;html=1;strokeColor=#457B9D;fontColor=#1D3557;" parent="PrXgXA7qm4J3uyecdOhD-158" vertex="1">
                    <mxGeometry width="60" height="30" as="geometry"/>
                </mxCell>
                <mxCell id="PrXgXA7qm4J3uyecdOhD-160" value="max_loan_days" style="shape=partialRectangle;connectable=0;fillColor=none;top=0;left=0;bottom=0;right=0;align=left;spacingLeft=6;overflow=hidden;labelBackgroundColor=none;labelBorderColor=none;html=1;strokeColor=#457B9D;fontColor=#1D3557;" parent="PrXgXA7qm4J3uyecdOhD-158" vertex="1">
                    <mxGeometry x="60" width="170" height="30" as="geometry"/>
                </mxCell>
                <mxCell id="PrXgXA7qm4J3uyecdOhD-161" value="" style="shape=partialRectangle;collapsible=0;dropTarget=0;pointerEvents=0;fillColor=none;top=0;left=0;bottom=0;right=0;points=[[0,0.5],[1,0.5]];portConstraint=eastwest;labelBackgroundColor=none;labelBorderColor=none;html=1;strokeColor=#457B9D;fontColor=#1D3557;" parent="PrXgXA7qm4J3uyecdOhD-136" vertex="1">
                    <mxGeometry y="170" width="230" height="30" as="geometry"/>
                </mxCell>
                <mxCell id="PrXgXA7qm4J3uyecdOhD-162" value="" style="shape=partialRectangle;connectable=0;fillColor=none;top=0;left=0;bottom=0;right=0;editable=1;overflow=hidden;labelBackgroundColor=none;labelBorderColor=none;html=1;strokeColor=#457B9D;fontColor=#1D3557;" parent="PrXgXA7qm4J3uyecdOhD-161" vertex="1">
                    <mxGeometry width="60" height="30" as="geometry"/>
                </mxCell>
                <mxCell id="PrXgXA7qm4J3uyecdOhD-163" value="condition" style="shape=partialRectangle;connectable=0;fillColor=none;top=0;left=0;bottom=0;right=0;align=left;spacingLeft=6;overflow=hidden;labelBackgroundColor=none;labelBorderColor=none;html=1;strokeColor=#457B9D;fontColor=#1D3557;" parent="PrXgXA7qm4J3uyecdOhD-161" vertex="1">
                    <mxGeometry x="60" width="170" height="30" as="geometry"/>
                </mxCell>
                <mxCell id="Hh5MqT5zX7tKTRsIW2Cj-0" value="" style="shape=partialRectangle;collapsible=0;dropTarget=0;pointerEvents=0;fillColor=none;top=0;left=0;bottom=0;right=0;points=[[0,0.5],[1,0.5]];portConstraint=eastwest;labelBackgroundColor=none;labelBorderColor=none;html=1;strokeColor=#457B9D;fontColor=#1D3557;" parent="PrXgXA7qm4J3uyecdOhD-136" vertex="1">
                    <mxGeometry y="200" width="230" height="30" as="geometry"/>
                </mxCell>
                <mxCell id="Hh5MqT5zX7tKTRsIW2Cj-1" value="" style="shape=partialRectangle;connectable=0;fillColor=none;top=0;left=0;bottom=0;right=0;editable=1;overflow=hidden;labelBackgroundColor=none;labelBorderColor=none;html=1;strokeColor=#457B9D;fontColor=#1D3557;" parent="Hh5MqT5zX7tKTRsIW2Cj-0" vertex="1">
                    <mxGeometry width="60" height="30" as="geometry"/>
                </mxCell>
                <mxCell id="Hh5MqT5zX7tKTRsIW2Cj-2" value="delivery_method" style="shape=partialRectangle;connectable=0;fillColor=none;top=0;left=0;bottom=0;right=0;align=left;spacingLeft=6;overflow=hidden;labelBackgroundColor=none;labelBorderColor=none;html=1;strokeColor=#457B9D;fontColor=#1D3557;" parent="Hh5MqT5zX7tKTRsIW2Cj-0" vertex="1">
                    <mxGeometry x="60" width="170" height="30" as="geometry"/>
                </mxCell>
                <mxCell id="PrXgXA7qm4J3uyecdOhD-170" value="authors" style="shape=table;startSize=30;container=1;collapsible=1;childLayout=tableLayout;fixedRows=1;rowLines=0;fontStyle=1;align=center;resizeLast=1;labelBackgroundColor=none;sketch=0;labelBorderColor=none;html=1;fillColor=#A8DADC;strokeColor=#457B9D;fontColor=#1D3557;" parent="PrXgXA7qm4J3uyecdOhD-1" vertex="1">
                    <mxGeometry x="1160" y="130" width="180" height="150" as="geometry"/>
                </mxCell>
                <mxCell id="PrXgXA7qm4J3uyecdOhD-171" value="" style="shape=partialRectangle;collapsible=0;dropTarget=0;pointerEvents=0;fillColor=none;top=0;left=0;bottom=1;right=0;points=[[0,0.5],[1,0.5]];portConstraint=eastwest;labelBackgroundColor=none;labelBorderColor=none;html=1;strokeColor=#457B9D;fontColor=#1D3557;" parent="PrXgXA7qm4J3uyecdOhD-170" vertex="1">
                    <mxGeometry y="30" width="180" height="30" as="geometry"/>
                </mxCell>
                <mxCell id="PrXgXA7qm4J3uyecdOhD-172" value="PK" style="shape=partialRectangle;connectable=0;fillColor=none;top=0;left=0;bottom=0;right=0;fontStyle=1;overflow=hidden;labelBackgroundColor=none;labelBorderColor=none;html=1;strokeColor=#457B9D;fontColor=#1D3557;" parent="PrXgXA7qm4J3uyecdOhD-171" vertex="1">
                    <mxGeometry width="30" height="30" as="geometry"/>
                </mxCell>
                <mxCell id="PrXgXA7qm4J3uyecdOhD-173" value="ID" style="shape=partialRectangle;connectable=0;fillColor=none;top=0;left=0;bottom=0;right=0;align=left;spacingLeft=6;fontStyle=5;overflow=hidden;labelBackgroundColor=none;labelBorderColor=none;html=1;strokeColor=#457B9D;fontColor=#1D3557;" parent="PrXgXA7qm4J3uyecdOhD-171" vertex="1">
                    <mxGeometry x="30" width="150" height="30" as="geometry"/>
                </mxCell>
                <mxCell id="PrXgXA7qm4J3uyecdOhD-174" value="" style="shape=partialRectangle;collapsible=0;dropTarget=0;pointerEvents=0;fillColor=none;top=0;left=0;bottom=0;right=0;points=[[0,0.5],[1,0.5]];portConstraint=eastwest;labelBackgroundColor=none;labelBorderColor=none;html=1;strokeColor=#457B9D;fontColor=#1D3557;" parent="PrXgXA7qm4J3uyecdOhD-170" vertex="1">
                    <mxGeometry y="60" width="180" height="30" as="geometry"/>
                </mxCell>
                <mxCell id="PrXgXA7qm4J3uyecdOhD-175" value="" style="shape=partialRectangle;connectable=0;fillColor=none;top=0;left=0;bottom=0;right=0;editable=1;overflow=hidden;labelBackgroundColor=none;labelBorderColor=none;html=1;strokeColor=#457B9D;fontColor=#1D3557;" parent="PrXgXA7qm4J3uyecdOhD-174" vertex="1">
                    <mxGeometry width="30" height="30" as="geometry"/>
                </mxCell>
                <mxCell id="PrXgXA7qm4J3uyecdOhD-176" value="last_name" style="shape=partialRectangle;connectable=0;fillColor=none;top=0;left=0;bottom=0;right=0;align=left;spacingLeft=6;overflow=hidden;labelBackgroundColor=none;labelBorderColor=none;html=1;strokeColor=#457B9D;fontColor=#1D3557;" parent="PrXgXA7qm4J3uyecdOhD-174" vertex="1">
                    <mxGeometry x="30" width="150" height="30" as="geometry"/>
                </mxCell>
                <mxCell id="PrXgXA7qm4J3uyecdOhD-177" value="" style="shape=partialRectangle;collapsible=0;dropTarget=0;pointerEvents=0;fillColor=none;top=0;left=0;bottom=0;right=0;points=[[0,0.5],[1,0.5]];portConstraint=eastwest;labelBackgroundColor=none;labelBorderColor=none;html=1;strokeColor=#457B9D;fontColor=#1D3557;" parent="PrXgXA7qm4J3uyecdOhD-170" vertex="1">
                    <mxGeometry y="90" width="180" height="30" as="geometry"/>
                </mxCell>
                <mxCell id="PrXgXA7qm4J3uyecdOhD-178" value="" style="shape=partialRectangle;connectable=0;fillColor=none;top=0;left=0;bottom=0;right=0;editable=1;overflow=hidden;labelBackgroundColor=none;labelBorderColor=none;html=1;strokeColor=#457B9D;fontColor=#1D3557;" parent="PrXgXA7qm4J3uyecdOhD-177" vertex="1">
                    <mxGeometry width="30" height="30" as="geometry"/>
                </mxCell>
                <mxCell id="PrXgXA7qm4J3uyecdOhD-179" value="first_name" style="shape=partialRectangle;connectable=0;fillColor=none;top=0;left=0;bottom=0;right=0;align=left;spacingLeft=6;overflow=hidden;labelBackgroundColor=none;labelBorderColor=none;html=1;strokeColor=#457B9D;fontColor=#1D3557;" parent="PrXgXA7qm4J3uyecdOhD-177" vertex="1">
                    <mxGeometry x="30" width="150" height="30" as="geometry"/>
                </mxCell>
                <mxCell id="PrXgXA7qm4J3uyecdOhD-180" value="" style="shape=partialRectangle;collapsible=0;dropTarget=0;pointerEvents=0;fillColor=none;top=0;left=0;bottom=0;right=0;points=[[0,0.5],[1,0.5]];portConstraint=eastwest;labelBackgroundColor=none;labelBorderColor=none;html=1;strokeColor=#457B9D;fontColor=#1D3557;" parent="PrXgXA7qm4J3uyecdOhD-170" vertex="1">
                    <mxGeometry y="120" width="180" height="20" as="geometry"/>
                </mxCell>
                <mxCell id="PrXgXA7qm4J3uyecdOhD-181" value="" style="shape=partialRectangle;connectable=0;fillColor=none;top=0;left=0;bottom=0;right=0;editable=1;overflow=hidden;labelBackgroundColor=none;labelBorderColor=none;html=1;strokeColor=#457B9D;fontColor=#1D3557;" parent="PrXgXA7qm4J3uyecdOhD-180" vertex="1">
                    <mxGeometry width="30" height="20" as="geometry"/>
                </mxCell>
                <mxCell id="PrXgXA7qm4J3uyecdOhD-182" value="" style="shape=partialRectangle;connectable=0;fillColor=none;top=0;left=0;bottom=0;right=0;align=left;spacingLeft=6;overflow=hidden;labelBackgroundColor=none;labelBorderColor=none;html=1;strokeColor=#457B9D;fontColor=#1D3557;" parent="PrXgXA7qm4J3uyecdOhD-180" vertex="1">
                    <mxGeometry x="30" width="150" height="20" as="geometry"/>
                </mxCell>
                <mxCell id="PrXgXA7qm4J3uyecdOhD-183" value="titles" style="shape=table;startSize=30;container=1;collapsible=1;childLayout=tableLayout;fixedRows=1;rowLines=0;fontStyle=1;align=center;resizeLast=1;labelBackgroundColor=none;sketch=0;labelBorderColor=none;html=1;fillColor=#A8DADC;strokeColor=#457B9D;fontColor=#1D3557;" parent="PrXgXA7qm4J3uyecdOhD-1" vertex="1">
                    <mxGeometry x="900" y="100" width="180" height="480" as="geometry"/>
                </mxCell>
                <mxCell id="PrXgXA7qm4J3uyecdOhD-184" value="" style="shape=partialRectangle;collapsible=0;dropTarget=0;pointerEvents=0;fillColor=none;top=0;left=0;bottom=0;right=0;points=[[0,0.5],[1,0.5]];portConstraint=eastwest;labelBackgroundColor=none;labelBorderColor=none;html=1;strokeColor=#457B9D;fontColor=#1D3557;" parent="PrXgXA7qm4J3uyecdOhD-183" vertex="1">
                    <mxGeometry y="30" width="180" height="30" as="geometry"/>
                </mxCell>
                <mxCell id="PrXgXA7qm4J3uyecdOhD-185" value="PK" style="shape=partialRectangle;connectable=0;fillColor=none;top=0;left=0;bottom=0;right=0;fontStyle=1;overflow=hidden;labelBackgroundColor=none;labelBorderColor=none;html=1;strokeColor=#457B9D;fontColor=#1D3557;" parent="PrXgXA7qm4J3uyecdOhD-184" vertex="1">
                    <mxGeometry width="60" height="30" as="geometry"/>
                </mxCell>
                <mxCell id="PrXgXA7qm4J3uyecdOhD-186" value="ID" style="shape=partialRectangle;connectable=0;fillColor=none;top=0;left=0;bottom=0;right=0;align=left;spacingLeft=6;fontStyle=5;overflow=hidden;labelBackgroundColor=none;labelBorderColor=none;html=1;strokeColor=#457B9D;fontColor=#1D3557;" parent="PrXgXA7qm4J3uyecdOhD-184" vertex="1">
                    <mxGeometry x="60" width="120" height="30" as="geometry"/>
                </mxCell>
                <mxCell id="PrXgXA7qm4J3uyecdOhD-187" value="" style="shape=partialRectangle;collapsible=0;dropTarget=0;pointerEvents=0;fillColor=none;top=0;left=0;bottom=0;right=0;points=[[0,0.5],[1,0.5]];portConstraint=eastwest;labelBackgroundColor=none;labelBorderColor=none;html=1;strokeColor=#457B9D;fontColor=#1D3557;" parent="PrXgXA7qm4J3uyecdOhD-183" vertex="1">
                    <mxGeometry y="60" width="180" height="30" as="geometry"/>
                </mxCell>
                <mxCell id="PrXgXA7qm4J3uyecdOhD-188" value="FK1" style="shape=partialRectangle;connectable=0;fillColor=none;top=0;left=0;bottom=0;right=0;fontStyle=1;overflow=hidden;labelBackgroundColor=none;labelBorderColor=none;html=1;strokeColor=#457B9D;fontColor=#1D3557;" parent="PrXgXA7qm4J3uyecdOhD-187" vertex="1">
                    <mxGeometry width="60" height="30" as="geometry"/>
                </mxCell>
                <mxCell id="PrXgXA7qm4J3uyecdOhD-189" value="author_id" style="shape=partialRectangle;connectable=0;fillColor=none;top=0;left=0;bottom=0;right=0;align=left;spacingLeft=6;fontStyle=5;overflow=hidden;labelBackgroundColor=none;labelBorderColor=none;html=1;strokeColor=#457B9D;fontColor=#1D3557;" parent="PrXgXA7qm4J3uyecdOhD-187" vertex="1">
                    <mxGeometry x="60" width="120" height="30" as="geometry"/>
                </mxCell>
                <mxCell id="PrXgXA7qm4J3uyecdOhD-190" value="" style="shape=partialRectangle;collapsible=0;dropTarget=0;pointerEvents=0;fillColor=none;top=0;left=0;bottom=1;right=0;points=[[0,0.5],[1,0.5]];portConstraint=eastwest;labelBackgroundColor=none;labelBorderColor=none;html=1;strokeColor=#457B9D;fontColor=#1D3557;" parent="PrXgXA7qm4J3uyecdOhD-183" vertex="1">
                    <mxGeometry y="90" width="180" height="30" as="geometry"/>
                </mxCell>
                <mxCell id="PrXgXA7qm4J3uyecdOhD-191" value="FK2" style="shape=partialRectangle;connectable=0;fillColor=none;top=0;left=0;bottom=0;right=0;fontStyle=1;overflow=hidden;labelBackgroundColor=none;labelBorderColor=none;html=1;strokeColor=#457B9D;fontColor=#1D3557;" parent="PrXgXA7qm4J3uyecdOhD-190" vertex="1">
                    <mxGeometry width="60" height="30" as="geometry"/>
                </mxCell>
                <mxCell id="PrXgXA7qm4J3uyecdOhD-192" value="category_id" style="shape=partialRectangle;connectable=0;fillColor=none;top=0;left=0;bottom=0;right=0;align=left;spacingLeft=6;fontStyle=5;overflow=hidden;labelBackgroundColor=none;labelBorderColor=none;html=1;strokeColor=#457B9D;fontColor=#1D3557;" parent="PrXgXA7qm4J3uyecdOhD-190" vertex="1">
                    <mxGeometry x="60" width="120" height="30" as="geometry"/>
                </mxCell>
                <mxCell id="PrXgXA7qm4J3uyecdOhD-193" value="" style="shape=partialRectangle;collapsible=0;dropTarget=0;pointerEvents=0;fillColor=none;top=0;left=0;bottom=0;right=0;points=[[0,0.5],[1,0.5]];portConstraint=eastwest;labelBackgroundColor=none;labelBorderColor=none;html=1;strokeColor=#457B9D;fontColor=#1D3557;" parent="PrXgXA7qm4J3uyecdOhD-183" vertex="1">
                    <mxGeometry y="120" width="180" height="30" as="geometry"/>
                </mxCell>
                <mxCell id="PrXgXA7qm4J3uyecdOhD-194" value="" style="shape=partialRectangle;connectable=0;fillColor=none;top=0;left=0;bottom=0;right=0;editable=1;overflow=hidden;labelBackgroundColor=none;labelBorderColor=none;html=1;strokeColor=#457B9D;fontColor=#1D3557;" parent="PrXgXA7qm4J3uyecdOhD-193" vertex="1">
                    <mxGeometry width="60" height="30" as="geometry"/>
                </mxCell>
                <mxCell id="PrXgXA7qm4J3uyecdOhD-195" value="title" style="shape=partialRectangle;connectable=0;fillColor=none;top=0;left=0;bottom=0;right=0;align=left;spacingLeft=6;overflow=hidden;labelBackgroundColor=none;labelBorderColor=none;html=1;strokeColor=#457B9D;fontColor=#1D3557;" parent="PrXgXA7qm4J3uyecdOhD-193" vertex="1">
                    <mxGeometry x="60" width="120" height="30" as="geometry"/>
                </mxCell>
                <mxCell id="PrXgXA7qm4J3uyecdOhD-196" value="" style="shape=partialRectangle;collapsible=0;dropTarget=0;pointerEvents=0;fillColor=none;top=0;left=0;bottom=0;right=0;points=[[0,0.5],[1,0.5]];portConstraint=eastwest;labelBackgroundColor=none;labelBorderColor=none;html=1;strokeColor=#457B9D;fontColor=#1D3557;" parent="PrXgXA7qm4J3uyecdOhD-183" vertex="1">
                    <mxGeometry y="150" width="180" height="30" as="geometry"/>
                </mxCell>
                <mxCell id="PrXgXA7qm4J3uyecdOhD-197" value="" style="shape=partialRectangle;connectable=0;fillColor=none;top=0;left=0;bottom=0;right=0;editable=1;overflow=hidden;labelBackgroundColor=none;labelBorderColor=none;html=1;strokeColor=#457B9D;fontColor=#1D3557;" parent="PrXgXA7qm4J3uyecdOhD-196" vertex="1">
                    <mxGeometry width="60" height="30" as="geometry"/>
                </mxCell>
                <mxCell id="PrXgXA7qm4J3uyecdOhD-198" value="subtitle" style="shape=partialRectangle;connectable=0;fillColor=none;top=0;left=0;bottom=0;right=0;align=left;spacingLeft=6;overflow=hidden;labelBackgroundColor=none;labelBorderColor=none;html=1;strokeColor=#457B9D;fontColor=#1D3557;" parent="PrXgXA7qm4J3uyecdOhD-196" vertex="1">
                    <mxGeometry x="60" width="120" height="30" as="geometry"/>
                </mxCell>
                <mxCell id="PrXgXA7qm4J3uyecdOhD-199" value="" style="shape=partialRectangle;collapsible=0;dropTarget=0;pointerEvents=0;fillColor=none;top=0;left=0;bottom=0;right=0;points=[[0,0.5],[1,0.5]];portConstraint=eastwest;labelBackgroundColor=none;labelBorderColor=none;html=1;strokeColor=#457B9D;fontColor=#1D3557;" parent="PrXgXA7qm4J3uyecdOhD-183" vertex="1">
                    <mxGeometry y="180" width="180" height="30" as="geometry"/>
                </mxCell>
                <mxCell id="PrXgXA7qm4J3uyecdOhD-200" value="" style="shape=partialRectangle;connectable=0;fillColor=none;top=0;left=0;bottom=0;right=0;editable=1;overflow=hidden;labelBackgroundColor=none;labelBorderColor=none;html=1;strokeColor=#457B9D;fontColor=#1D3557;" parent="PrXgXA7qm4J3uyecdOhD-199" vertex="1">
                    <mxGeometry width="60" height="30" as="geometry"/>
                </mxCell>
                <mxCell id="PrXgXA7qm4J3uyecdOhD-201" value="publisher" style="shape=partialRectangle;connectable=0;fillColor=none;top=0;left=0;bottom=0;right=0;align=left;spacingLeft=6;overflow=hidden;labelBackgroundColor=none;labelBorderColor=none;html=1;strokeColor=#457B9D;fontColor=#1D3557;" parent="PrXgXA7qm4J3uyecdOhD-199" vertex="1">
                    <mxGeometry x="60" width="120" height="30" as="geometry"/>
                </mxCell>
                <mxCell id="PrXgXA7qm4J3uyecdOhD-202" value="" style="shape=partialRectangle;collapsible=0;dropTarget=0;pointerEvents=0;fillColor=none;top=0;left=0;bottom=0;right=0;points=[[0,0.5],[1,0.5]];portConstraint=eastwest;labelBackgroundColor=none;labelBorderColor=none;html=1;strokeColor=#457B9D;fontColor=#1D3557;" parent="PrXgXA7qm4J3uyecdOhD-183" vertex="1">
                    <mxGeometry y="210" width="180" height="30" as="geometry"/>
                </mxCell>
                <mxCell id="PrXgXA7qm4J3uyecdOhD-203" value="" style="shape=partialRectangle;connectable=0;fillColor=none;top=0;left=0;bottom=0;right=0;editable=1;overflow=hidden;labelBackgroundColor=none;labelBorderColor=none;html=1;strokeColor=#457B9D;fontColor=#1D3557;" parent="PrXgXA7qm4J3uyecdOhD-202" vertex="1">
                    <mxGeometry width="60" height="30" as="geometry"/>
                </mxCell>
                <mxCell id="PrXgXA7qm4J3uyecdOhD-204" value="&lt;font color=&quot;#6e6e6e&quot;&gt;amount&lt;/font&gt;" style="shape=partialRectangle;connectable=0;fillColor=#d0cee2;top=0;left=0;bottom=0;right=0;align=left;spacingLeft=6;overflow=hidden;labelBackgroundColor=none;labelBorderColor=none;html=1;strokeColor=#56517e;" parent="PrXgXA7qm4J3uyecdOhD-202" vertex="1">
                    <mxGeometry x="60" width="120" height="30" as="geometry"/>
                </mxCell>
                <mxCell id="PrXgXA7qm4J3uyecdOhD-205" value="" style="shape=partialRectangle;collapsible=0;dropTarget=0;pointerEvents=0;fillColor=none;top=0;left=0;bottom=0;right=0;points=[[0,0.5],[1,0.5]];portConstraint=eastwest;labelBackgroundColor=none;labelBorderColor=none;html=1;strokeColor=#457B9D;fontColor=#1D3557;" parent="PrXgXA7qm4J3uyecdOhD-183" vertex="1">
                    <mxGeometry y="240" width="180" height="30" as="geometry"/>
                </mxCell>
                <mxCell id="PrXgXA7qm4J3uyecdOhD-206" value="" style="shape=partialRectangle;connectable=0;fillColor=none;top=0;left=0;bottom=0;right=0;editable=1;overflow=hidden;labelBackgroundColor=none;labelBorderColor=none;html=1;strokeColor=#457B9D;fontColor=#1D3557;" parent="PrXgXA7qm4J3uyecdOhD-205" vertex="1">
                    <mxGeometry width="60" height="30" as="geometry"/>
                </mxCell>
                <mxCell id="PrXgXA7qm4J3uyecdOhD-207" value="description" style="shape=partialRectangle;connectable=0;fillColor=none;top=0;left=0;bottom=0;right=0;align=left;spacingLeft=6;overflow=hidden;labelBackgroundColor=none;labelBorderColor=none;html=1;strokeColor=#457B9D;fontColor=#1D3557;" parent="PrXgXA7qm4J3uyecdOhD-205" vertex="1">
                    <mxGeometry x="60" width="120" height="30" as="geometry"/>
                </mxCell>
                <mxCell id="PrXgXA7qm4J3uyecdOhD-208" value="" style="shape=partialRectangle;collapsible=0;dropTarget=0;pointerEvents=0;fillColor=none;top=0;left=0;bottom=0;right=0;points=[[0,0.5],[1,0.5]];portConstraint=eastwest;labelBackgroundColor=none;labelBorderColor=none;html=1;strokeColor=#457B9D;fontColor=#1D3557;" parent="PrXgXA7qm4J3uyecdOhD-183" vertex="1">
                    <mxGeometry y="270" width="180" height="30" as="geometry"/>
                </mxCell>
                <mxCell id="PrXgXA7qm4J3uyecdOhD-209" value="" style="shape=partialRectangle;connectable=0;fillColor=none;top=0;left=0;bottom=0;right=0;editable=1;overflow=hidden;labelBackgroundColor=none;labelBorderColor=none;html=1;strokeColor=#457B9D;fontColor=#1D3557;" parent="PrXgXA7qm4J3uyecdOhD-208" vertex="1">
                    <mxGeometry width="60" height="30" as="geometry"/>
                </mxCell>
                <mxCell id="PrXgXA7qm4J3uyecdOhD-210" value="title_img" style="shape=partialRectangle;connectable=0;fillColor=none;top=0;left=0;bottom=0;right=0;align=left;spacingLeft=6;overflow=hidden;labelBackgroundColor=none;labelBorderColor=none;html=1;strokeColor=#457B9D;fontColor=#1D3557;" parent="PrXgXA7qm4J3uyecdOhD-208" vertex="1">
                    <mxGeometry x="60" width="120" height="30" as="geometry"/>
                </mxCell>
                <mxCell id="MCleI-rzZkDcenhgw0AU-3" value="" style="shape=partialRectangle;collapsible=0;dropTarget=0;pointerEvents=0;fillColor=none;top=0;left=0;bottom=0;right=0;points=[[0,0.5],[1,0.5]];portConstraint=eastwest;labelBackgroundColor=none;labelBorderColor=none;html=1;strokeColor=#457B9D;fontColor=#1D3557;" parent="PrXgXA7qm4J3uyecdOhD-183" vertex="1">
                    <mxGeometry y="300" width="180" height="30" as="geometry"/>
                </mxCell>
                <mxCell id="MCleI-rzZkDcenhgw0AU-4" value="" style="shape=partialRectangle;connectable=0;fillColor=none;top=0;left=0;bottom=0;right=0;editable=1;overflow=hidden;labelBackgroundColor=none;labelBorderColor=none;html=1;strokeColor=#457B9D;fontColor=#1D3557;" parent="MCleI-rzZkDcenhgw0AU-3" vertex="1">
                    <mxGeometry width="60" height="30" as="geometry"/>
                </mxCell>
                <mxCell id="MCleI-rzZkDcenhgw0AU-5" value="isbn-10" style="shape=partialRectangle;connectable=0;fillColor=none;top=0;left=0;bottom=0;right=0;align=left;spacingLeft=6;overflow=hidden;labelBackgroundColor=none;labelBorderColor=none;html=1;strokeColor=#457B9D;fontColor=#1D3557;" parent="MCleI-rzZkDcenhgw0AU-3" vertex="1">
                    <mxGeometry x="60" width="120" height="30" as="geometry"/>
                </mxCell>
                <mxCell id="MCleI-rzZkDcenhgw0AU-6" value="" style="shape=partialRectangle;collapsible=0;dropTarget=0;pointerEvents=0;fillColor=none;top=0;left=0;bottom=0;right=0;points=[[0,0.5],[1,0.5]];portConstraint=eastwest;labelBackgroundColor=none;labelBorderColor=none;html=1;strokeColor=#457B9D;fontColor=#1D3557;" parent="PrXgXA7qm4J3uyecdOhD-183" vertex="1">
                    <mxGeometry y="330" width="180" height="30" as="geometry"/>
                </mxCell>
                <mxCell id="MCleI-rzZkDcenhgw0AU-7" value="" style="shape=partialRectangle;connectable=0;fillColor=none;top=0;left=0;bottom=0;right=0;editable=1;overflow=hidden;labelBackgroundColor=none;labelBorderColor=none;html=1;strokeColor=#457B9D;fontColor=#1D3557;" parent="MCleI-rzZkDcenhgw0AU-6" vertex="1">
                    <mxGeometry width="60" height="30" as="geometry"/>
                </mxCell>
                <mxCell id="MCleI-rzZkDcenhgw0AU-8" value="isbn-13" style="shape=partialRectangle;connectable=0;fillColor=none;top=0;left=0;bottom=0;right=0;align=left;spacingLeft=6;overflow=hidden;labelBackgroundColor=none;labelBorderColor=none;html=1;strokeColor=#457B9D;fontColor=#1D3557;" parent="MCleI-rzZkDcenhgw0AU-6" vertex="1">
                    <mxGeometry x="60" width="120" height="30" as="geometry"/>
                </mxCell>
                <mxCell id="MCleI-rzZkDcenhgw0AU-9" value="" style="shape=partialRectangle;collapsible=0;dropTarget=0;pointerEvents=0;fillColor=none;top=0;left=0;bottom=0;right=0;points=[[0,0.5],[1,0.5]];portConstraint=eastwest;labelBackgroundColor=none;labelBorderColor=none;html=1;strokeColor=#457B9D;fontColor=#1D3557;" parent="PrXgXA7qm4J3uyecdOhD-183" vertex="1">
                    <mxGeometry y="360" width="180" height="30" as="geometry"/>
                </mxCell>
                <mxCell id="MCleI-rzZkDcenhgw0AU-10" value="" style="shape=partialRectangle;connectable=0;fillColor=none;top=0;left=0;bottom=0;right=0;editable=1;overflow=hidden;labelBackgroundColor=none;labelBorderColor=none;html=1;strokeColor=#457B9D;fontColor=#1D3557;" parent="MCleI-rzZkDcenhgw0AU-9" vertex="1">
                    <mxGeometry width="60" height="30" as="geometry"/>
                </mxCell>
                <mxCell id="MCleI-rzZkDcenhgw0AU-11" value="asin" style="shape=partialRectangle;connectable=0;fillColor=none;top=0;left=0;bottom=0;right=0;align=left;spacingLeft=6;overflow=hidden;labelBackgroundColor=none;labelBorderColor=none;html=1;strokeColor=#457B9D;fontColor=#1D3557;" parent="MCleI-rzZkDcenhgw0AU-9" vertex="1">
                    <mxGeometry x="60" width="120" height="30" as="geometry"/>
                </mxCell>
                <mxCell id="MCleI-rzZkDcenhgw0AU-12" value="" style="shape=partialRectangle;collapsible=0;dropTarget=0;pointerEvents=0;fillColor=none;top=0;left=0;bottom=0;right=0;points=[[0,0.5],[1,0.5]];portConstraint=eastwest;labelBackgroundColor=none;labelBorderColor=none;html=1;strokeColor=#457B9D;fontColor=#1D3557;" parent="PrXgXA7qm4J3uyecdOhD-183" vertex="1">
                    <mxGeometry y="390" width="180" height="30" as="geometry"/>
                </mxCell>
                <mxCell id="MCleI-rzZkDcenhgw0AU-13" value="" style="shape=partialRectangle;connectable=0;fillColor=none;top=0;left=0;bottom=0;right=0;editable=1;overflow=hidden;labelBackgroundColor=none;labelBorderColor=none;html=1;strokeColor=#457B9D;fontColor=#1D3557;" parent="MCleI-rzZkDcenhgw0AU-12" vertex="1">
                    <mxGeometry width="60" height="30" as="geometry"/>
                </mxCell>
                <mxCell id="MCleI-rzZkDcenhgw0AU-14" value="publication_form (hardcover, softcover, paperback)" style="shape=partialRectangle;connectable=0;fillColor=none;top=0;left=0;bottom=0;right=0;align=left;spacingLeft=6;overflow=hidden;labelBackgroundColor=none;labelBorderColor=none;html=1;strokeColor=#457B9D;fontColor=#1D3557;" parent="MCleI-rzZkDcenhgw0AU-12" vertex="1">
                    <mxGeometry x="60" width="120" height="30" as="geometry"/>
                </mxCell>
                <mxCell id="MCleI-rzZkDcenhgw0AU-15" value="" style="shape=partialRectangle;collapsible=0;dropTarget=0;pointerEvents=0;fillColor=none;top=0;left=0;bottom=0;right=0;points=[[0,0.5],[1,0.5]];portConstraint=eastwest;labelBackgroundColor=none;labelBorderColor=none;html=1;strokeColor=#457B9D;fontColor=#1D3557;" parent="PrXgXA7qm4J3uyecdOhD-183" vertex="1">
                    <mxGeometry y="420" width="180" height="30" as="geometry"/>
                </mxCell>
                <mxCell id="MCleI-rzZkDcenhgw0AU-16" value="" style="shape=partialRectangle;connectable=0;fillColor=none;top=0;left=0;bottom=0;right=0;editable=1;overflow=hidden;labelBackgroundColor=none;labelBorderColor=none;html=1;strokeColor=#457B9D;fontColor=#1D3557;" parent="MCleI-rzZkDcenhgw0AU-15" vertex="1">
                    <mxGeometry width="60" height="30" as="geometry"/>
                </mxCell>
                <mxCell id="MCleI-rzZkDcenhgw0AU-17" value="publication_year" style="shape=partialRectangle;connectable=0;fillColor=none;top=0;left=0;bottom=0;right=0;align=left;spacingLeft=6;overflow=hidden;labelBackgroundColor=none;labelBorderColor=none;html=1;strokeColor=#457B9D;fontColor=#1D3557;" parent="MCleI-rzZkDcenhgw0AU-15" vertex="1">
                    <mxGeometry x="60" width="120" height="30" as="geometry"/>
                </mxCell>
                <mxCell id="MCleI-rzZkDcenhgw0AU-18" value="" style="shape=partialRectangle;collapsible=0;dropTarget=0;pointerEvents=0;fillColor=none;top=0;left=0;bottom=0;right=0;points=[[0,0.5],[1,0.5]];portConstraint=eastwest;labelBackgroundColor=none;labelBorderColor=none;html=1;strokeColor=#457B9D;fontColor=#1D3557;" parent="PrXgXA7qm4J3uyecdOhD-183" vertex="1">
                    <mxGeometry y="450" width="180" height="30" as="geometry"/>
                </mxCell>
                <mxCell id="MCleI-rzZkDcenhgw0AU-19" value="" style="shape=partialRectangle;connectable=0;fillColor=none;top=0;left=0;bottom=0;right=0;editable=1;overflow=hidden;labelBackgroundColor=none;labelBorderColor=none;html=1;strokeColor=#457B9D;fontColor=#1D3557;" parent="MCleI-rzZkDcenhgw0AU-18" vertex="1">
                    <mxGeometry width="60" height="30" as="geometry"/>
                </mxCell>
                <mxCell id="MCleI-rzZkDcenhgw0AU-20" value="edition" style="shape=partialRectangle;connectable=0;fillColor=none;top=0;left=0;bottom=0;right=0;align=left;spacingLeft=6;overflow=hidden;labelBackgroundColor=none;labelBorderColor=none;html=1;strokeColor=#457B9D;fontColor=#1D3557;" parent="MCleI-rzZkDcenhgw0AU-18" vertex="1">
                    <mxGeometry x="60" width="120" height="30" as="geometry"/>
                </mxCell>
                <mxCell id="PrXgXA7qm4J3uyecdOhD-214" value="categories" style="shape=table;startSize=30;container=1;collapsible=1;childLayout=tableLayout;fixedRows=1;rowLines=0;fontStyle=1;align=center;resizeLast=1;labelBackgroundColor=none;sketch=0;labelBorderColor=none;html=1;fillColor=#A8DADC;strokeColor=#457B9D;fontColor=#1D3557;" parent="PrXgXA7qm4J3uyecdOhD-1" vertex="1">
                    <mxGeometry x="1130" y="380" width="220" height="160" as="geometry">
                        <mxRectangle x="1140" y="1090" width="80" height="30" as="alternateBounds"/>
                    </mxGeometry>
                </mxCell>
                <mxCell id="PrXgXA7qm4J3uyecdOhD-215" value="" style="shape=partialRectangle;collapsible=0;dropTarget=0;pointerEvents=0;fillColor=none;top=0;left=0;bottom=1;right=0;points=[[0,0.5],[1,0.5]];portConstraint=eastwest;labelBackgroundColor=none;labelBorderColor=none;html=1;strokeColor=#457B9D;fontColor=#1D3557;" parent="PrXgXA7qm4J3uyecdOhD-214" vertex="1">
                    <mxGeometry y="30" width="220" height="30" as="geometry"/>
                </mxCell>
                <mxCell id="PrXgXA7qm4J3uyecdOhD-216" value="PK" style="shape=partialRectangle;connectable=0;fillColor=none;top=0;left=0;bottom=0;right=0;fontStyle=1;overflow=hidden;labelBackgroundColor=none;labelBorderColor=none;html=1;strokeColor=#457B9D;fontColor=#1D3557;" parent="PrXgXA7qm4J3uyecdOhD-215" vertex="1">
                    <mxGeometry width="30" height="30" as="geometry"/>
                </mxCell>
                <mxCell id="PrXgXA7qm4J3uyecdOhD-217" value="ID" style="shape=partialRectangle;connectable=0;fillColor=none;top=0;left=0;bottom=0;right=0;align=left;spacingLeft=6;fontStyle=5;overflow=hidden;labelBackgroundColor=none;labelBorderColor=none;html=1;strokeColor=#457B9D;fontColor=#1D3557;" parent="PrXgXA7qm4J3uyecdOhD-215" vertex="1">
                    <mxGeometry x="30" width="190" height="30" as="geometry"/>
                </mxCell>
                <mxCell id="RVa248gsufVzpz4a8zM--3" value="" style="shape=partialRectangle;collapsible=0;dropTarget=0;pointerEvents=0;fillColor=none;top=0;left=0;bottom=0;right=0;points=[[0,0.5],[1,0.5]];portConstraint=eastwest;labelBackgroundColor=none;labelBorderColor=none;html=1;strokeColor=#457B9D;fontColor=#1D3557;" parent="PrXgXA7qm4J3uyecdOhD-214" vertex="1">
                    <mxGeometry y="60" width="220" height="30" as="geometry"/>
                </mxCell>
                <mxCell id="RVa248gsufVzpz4a8zM--4" value="" style="shape=partialRectangle;connectable=0;fillColor=none;top=0;left=0;bottom=0;right=0;editable=1;overflow=hidden;labelBackgroundColor=none;labelBorderColor=none;html=1;strokeColor=#457B9D;fontColor=#1D3557;" parent="RVa248gsufVzpz4a8zM--3" vertex="1">
                    <mxGeometry width="30" height="30" as="geometry"/>
                </mxCell>
                <mxCell id="RVa248gsufVzpz4a8zM--5" value="fiction" style="shape=partialRectangle;connectable=0;fillColor=none;top=0;left=0;bottom=0;right=0;align=left;spacingLeft=6;overflow=hidden;labelBackgroundColor=none;labelBorderColor=none;html=1;strokeColor=#457B9D;fontColor=#1D3557;" parent="RVa248gsufVzpz4a8zM--3" vertex="1">
                    <mxGeometry x="30" width="190" height="30" as="geometry"/>
                </mxCell>
                <mxCell id="RVa248gsufVzpz4a8zM--9" value="" style="shape=partialRectangle;collapsible=0;dropTarget=0;pointerEvents=0;fillColor=none;top=0;left=0;bottom=0;right=0;points=[[0,0.5],[1,0.5]];portConstraint=eastwest;labelBackgroundColor=none;labelBorderColor=none;html=1;strokeColor=#457B9D;fontColor=#1D3557;" parent="PrXgXA7qm4J3uyecdOhD-214" vertex="1">
                    <mxGeometry y="90" width="220" height="30" as="geometry"/>
                </mxCell>
                <mxCell id="RVa248gsufVzpz4a8zM--10" value="" style="shape=partialRectangle;connectable=0;fillColor=none;top=0;left=0;bottom=0;right=0;editable=1;overflow=hidden;labelBackgroundColor=none;labelBorderColor=none;html=1;strokeColor=#457B9D;fontColor=#1D3557;" parent="RVa248gsufVzpz4a8zM--9" vertex="1">
                    <mxGeometry width="30" height="30" as="geometry"/>
                </mxCell>
                <mxCell id="RVa248gsufVzpz4a8zM--11" value="non-fiction" style="shape=partialRectangle;connectable=0;fillColor=none;top=0;left=0;bottom=0;right=0;align=left;spacingLeft=6;overflow=hidden;labelBackgroundColor=none;labelBorderColor=none;html=1;strokeColor=#457B9D;fontColor=#1D3557;" parent="RVa248gsufVzpz4a8zM--9" vertex="1">
                    <mxGeometry x="30" width="190" height="30" as="geometry"/>
                </mxCell>
                <mxCell id="RVa248gsufVzpz4a8zM--12" value="" style="shape=partialRectangle;collapsible=0;dropTarget=0;pointerEvents=0;fillColor=none;top=0;left=0;bottom=0;right=0;points=[[0,0.5],[1,0.5]];portConstraint=eastwest;labelBackgroundColor=none;labelBorderColor=none;html=1;strokeColor=#457B9D;fontColor=#1D3557;" parent="PrXgXA7qm4J3uyecdOhD-214" vertex="1">
                    <mxGeometry y="120" width="220" height="30" as="geometry"/>
                </mxCell>
                <mxCell id="RVa248gsufVzpz4a8zM--13" value="" style="shape=partialRectangle;connectable=0;fillColor=none;top=0;left=0;bottom=0;right=0;editable=1;overflow=hidden;labelBackgroundColor=none;labelBorderColor=none;html=1;strokeColor=#457B9D;fontColor=#1D3557;" parent="RVa248gsufVzpz4a8zM--12" vertex="1">
                    <mxGeometry width="30" height="30" as="geometry"/>
                </mxCell>
                <mxCell id="RVa248gsufVzpz4a8zM--14" value="category_name" style="shape=partialRectangle;connectable=0;fillColor=none;top=0;left=0;bottom=0;right=0;align=left;spacingLeft=6;overflow=hidden;labelBackgroundColor=none;labelBorderColor=none;html=1;strokeColor=#457B9D;fontColor=#1D3557;" parent="RVa248gsufVzpz4a8zM--12" vertex="1">
                    <mxGeometry x="30" width="190" height="30" as="geometry"/>
                </mxCell>
                <mxCell id="PrXgXA7qm4J3uyecdOhD-288" style="edgeStyle=orthogonalEdgeStyle;rounded=0;orthogonalLoop=1;jettySize=auto;html=1;labelBackgroundColor=none;labelBorderColor=none;strokeColor=#457B9D;fontColor=#1D3557;" parent="PrXgXA7qm4J3uyecdOhD-1" source="PrXgXA7qm4J3uyecdOhD-68" target="PrXgXA7qm4J3uyecdOhD-112" edge="1">
                    <mxGeometry relative="1" as="geometry"/>
                </mxCell>
                <mxCell id="PrXgXA7qm4J3uyecdOhD-289" style="edgeStyle=orthogonalEdgeStyle;rounded=0;orthogonalLoop=1;jettySize=auto;html=1;labelBackgroundColor=none;labelBorderColor=none;strokeColor=#457B9D;fontColor=#1D3557;" parent="PrXgXA7qm4J3uyecdOhD-1" source="PrXgXA7qm4J3uyecdOhD-81" target="PrXgXA7qm4J3uyecdOhD-71" edge="1">
                    <mxGeometry relative="1" as="geometry"/>
                </mxCell>
                <mxCell id="PrXgXA7qm4J3uyecdOhD-290" style="edgeStyle=orthogonalEdgeStyle;rounded=0;orthogonalLoop=1;jettySize=auto;html=1;entryX=0.011;entryY=0.767;entryDx=0;entryDy=0;entryPerimeter=0;labelBackgroundColor=none;labelBorderColor=none;strokeColor=#457B9D;fontColor=#1D3557;" parent="PrXgXA7qm4J3uyecdOhD-1" source="PrXgXA7qm4J3uyecdOhD-109" target="PrXgXA7qm4J3uyecdOhD-143" edge="1">
                    <mxGeometry relative="1" as="geometry"/>
                </mxCell>
                <mxCell id="PrXgXA7qm4J3uyecdOhD-291" style="edgeStyle=orthogonalEdgeStyle;rounded=0;orthogonalLoop=1;jettySize=auto;html=1;labelBackgroundColor=none;labelBorderColor=none;strokeColor=#457B9D;fontColor=#1D3557;" parent="PrXgXA7qm4J3uyecdOhD-1" source="PrXgXA7qm4J3uyecdOhD-184" target="PrXgXA7qm4J3uyecdOhD-140" edge="1">
                    <mxGeometry relative="1" as="geometry"/>
                </mxCell>
                <mxCell id="PrXgXA7qm4J3uyecdOhD-292" style="edgeStyle=orthogonalEdgeStyle;rounded=0;orthogonalLoop=1;jettySize=auto;html=1;labelBackgroundColor=none;labelBorderColor=none;strokeColor=#457B9D;fontColor=#1D3557;" parent="PrXgXA7qm4J3uyecdOhD-1" source="PrXgXA7qm4J3uyecdOhD-187" target="PrXgXA7qm4J3uyecdOhD-171" edge="1">
                    <mxGeometry relative="1" as="geometry"/>
                </mxCell>
                <mxCell id="PrXgXA7qm4J3uyecdOhD-293" style="edgeStyle=orthogonalEdgeStyle;rounded=0;orthogonalLoop=1;jettySize=auto;html=1;labelBackgroundColor=none;labelBorderColor=none;strokeColor=#457B9D;fontColor=#1D3557;" parent="PrXgXA7qm4J3uyecdOhD-1" source="PrXgXA7qm4J3uyecdOhD-190" target="PrXgXA7qm4J3uyecdOhD-215" edge="1">
                    <mxGeometry relative="1" as="geometry"/>
                </mxCell>
                <mxCell id="PrXgXA7qm4J3uyecdOhD-294" style="edgeStyle=orthogonalEdgeStyle;rounded=0;orthogonalLoop=1;jettySize=auto;html=1;exitX=1;exitY=0.5;exitDx=0;exitDy=0;labelBackgroundColor=none;labelBorderColor=none;strokeColor=#457B9D;fontColor=#1D3557;" parent="PrXgXA7qm4J3uyecdOhD-1" source="PrXgXA7qm4J3uyecdOhD-81" target="PrXgXA7qm4J3uyecdOhD-146" edge="1">
                    <mxGeometry relative="1" as="geometry"/>
                </mxCell>
            </root>
        </mxGraphModel>
    </diagram>
    <diagram id="-a1nu68exaHaDMjW7-cW" name="flowchart">
        <mxGraphModel dx="1587" dy="1011" grid="1" gridSize="10" guides="1" tooltips="1" connect="1" arrows="1" fold="1" page="1" pageScale="1" pageWidth="827" pageHeight="1169" background="#F1FAEE" math="0" shadow="0">
            <root>
                <mxCell id="Nag_lbrp05LJqyUg_OQA-0"/>
                <mxCell id="Nag_lbrp05LJqyUg_OQA-1" parent="Nag_lbrp05LJqyUg_OQA-0"/>
                <mxCell id="Nag_lbrp05LJqyUg_OQA-2" value="Home" style="rounded=1;whiteSpace=wrap;html=1;fillColor=#A8DADC;strokeColor=#457B9D;fontColor=#1D3557;" parent="Nag_lbrp05LJqyUg_OQA-1" vertex="1">
                    <mxGeometry x="130" y="170" width="120" height="60" as="geometry"/>
                </mxCell>
                <mxCell id="Nag_lbrp05LJqyUg_OQA-3" value="register" style="strokeWidth=2;html=1;shape=mxgraph.flowchart.decision;whiteSpace=wrap;fillColor=#A8DADC;strokeColor=#457B9D;fontColor=#1D3557;" parent="Nag_lbrp05LJqyUg_OQA-1" vertex="1">
                    <mxGeometry x="310" y="160" width="80" height="80" as="geometry"/>
                </mxCell>
                <mxCell id="Nag_lbrp05LJqyUg_OQA-4" value="" style="endArrow=classic;html=1;exitX=1;exitY=0.5;exitDx=0;exitDy=0;entryX=0;entryY=0.5;entryDx=0;entryDy=0;entryPerimeter=0;labelBackgroundColor=#F1FAEE;strokeColor=#457B9D;fontColor=#1D3557;" parent="Nag_lbrp05LJqyUg_OQA-1" source="Nag_lbrp05LJqyUg_OQA-2" target="Nag_lbrp05LJqyUg_OQA-3" edge="1">
                    <mxGeometry width="50" height="50" relative="1" as="geometry">
                        <mxPoint x="440" y="340" as="sourcePoint"/>
                        <mxPoint x="490" y="290" as="targetPoint"/>
                    </mxGeometry>
                </mxCell>
                <mxCell id="Nag_lbrp05LJqyUg_OQA-5" value="Form" style="rounded=1;whiteSpace=wrap;html=1;fillColor=#A8DADC;strokeColor=#457B9D;fontColor=#1D3557;" parent="Nag_lbrp05LJqyUg_OQA-1" vertex="1">
                    <mxGeometry x="430" y="170" width="120" height="60" as="geometry"/>
                </mxCell>
                <mxCell id="Nag_lbrp05LJqyUg_OQA-6" value="" style="endArrow=classic;html=1;exitX=1;exitY=0.5;exitDx=0;exitDy=0;exitPerimeter=0;entryX=0;entryY=0.5;entryDx=0;entryDy=0;labelBackgroundColor=#F1FAEE;strokeColor=#457B9D;fontColor=#1D3557;" parent="Nag_lbrp05LJqyUg_OQA-1" source="Nag_lbrp05LJqyUg_OQA-3" target="Nag_lbrp05LJqyUg_OQA-5" edge="1">
                    <mxGeometry width="50" height="50" relative="1" as="geometry">
                        <mxPoint x="440" y="340" as="sourcePoint"/>
                        <mxPoint x="490" y="290" as="targetPoint"/>
                    </mxGeometry>
                </mxCell>
                <mxCell id="Nag_lbrp05LJqyUg_OQA-7" value="&lt;b&gt;DB&lt;/b&gt;&lt;br&gt;User" style="shape=cylinder3;whiteSpace=wrap;html=1;boundedLbl=1;backgroundOutline=1;size=15;fillColor=#A8DADC;strokeColor=#457B9D;strokeWidth=2;fontColor=#1D3557;" parent="Nag_lbrp05LJqyUg_OQA-1" vertex="1">
                    <mxGeometry x="690" y="90" width="60" height="100" as="geometry"/>
                </mxCell>
                <mxCell id="Nag_lbrp05LJqyUg_OQA-8" value="register" style="endArrow=classic;html=1;exitX=1;exitY=0.5;exitDx=0;exitDy=0;entryX=0;entryY=0.5;entryDx=0;entryDy=0;entryPerimeter=0;edgeStyle=orthogonalEdgeStyle;rounded=0;labelBackgroundColor=#F1FAEE;strokeColor=#457B9D;fontColor=#1D3557;" parent="Nag_lbrp05LJqyUg_OQA-1" source="Nag_lbrp05LJqyUg_OQA-5" target="Nag_lbrp05LJqyUg_OQA-7" edge="1">
                    <mxGeometry width="50" height="50" relative="1" as="geometry">
                        <mxPoint x="440" y="330" as="sourcePoint"/>
                        <mxPoint x="490" y="280" as="targetPoint"/>
                    </mxGeometry>
                </mxCell>
                <mxCell id="Nag_lbrp05LJqyUg_OQA-9" value="login" style="strokeWidth=2;html=1;shape=mxgraph.flowchart.decision;whiteSpace=wrap;fillColor=#A8DADC;strokeColor=#457B9D;fontColor=#1D3557;" parent="Nag_lbrp05LJqyUg_OQA-1" vertex="1">
                    <mxGeometry x="305" y="290" width="85" height="80" as="geometry"/>
                </mxCell>
                <mxCell id="Nag_lbrp05LJqyUg_OQA-10" value="" style="endArrow=classic;html=1;exitX=0.5;exitY=1;exitDx=0;exitDy=0;entryX=0;entryY=0.5;entryDx=0;entryDy=0;entryPerimeter=0;rounded=0;edgeStyle=orthogonalEdgeStyle;labelBackgroundColor=#F1FAEE;strokeColor=#457B9D;fontColor=#1D3557;" parent="Nag_lbrp05LJqyUg_OQA-1" source="Nag_lbrp05LJqyUg_OQA-2" target="Nag_lbrp05LJqyUg_OQA-9" edge="1">
                    <mxGeometry width="50" height="50" relative="1" as="geometry">
                        <mxPoint x="440" y="330" as="sourcePoint"/>
                        <mxPoint x="490" y="280" as="targetPoint"/>
                    </mxGeometry>
                </mxCell>
                <mxCell id="Nag_lbrp05LJqyUg_OQA-11" value="" style="endArrow=classic;html=1;exitX=0.5;exitY=1;exitDx=0;exitDy=0;entryX=1;entryY=0.5;entryDx=0;entryDy=0;entryPerimeter=0;edgeStyle=orthogonalEdgeStyle;rounded=0;labelBackgroundColor=#F1FAEE;strokeColor=#457B9D;fontColor=#1D3557;" parent="Nag_lbrp05LJqyUg_OQA-1" source="Nag_lbrp05LJqyUg_OQA-5" target="Nag_lbrp05LJqyUg_OQA-9" edge="1">
                    <mxGeometry width="50" height="50" relative="1" as="geometry">
                        <mxPoint x="440" y="330" as="sourcePoint"/>
                        <mxPoint x="490" y="280" as="targetPoint"/>
                    </mxGeometry>
                </mxCell>
                <mxCell id="Nag_lbrp05LJqyUg_OQA-12" value="" style="endArrow=classic;html=1;exitX=0.5;exitY=1;exitDx=0;exitDy=0;exitPerimeter=0;labelBackgroundColor=#F1FAEE;strokeColor=#457B9D;fontColor=#1D3557;" parent="Nag_lbrp05LJqyUg_OQA-1" source="Nag_lbrp05LJqyUg_OQA-9" edge="1">
                    <mxGeometry width="50" height="50" relative="1" as="geometry">
                        <mxPoint x="440" y="330" as="sourcePoint"/>
                        <mxPoint x="348" y="420" as="targetPoint"/>
                    </mxGeometry>
                </mxCell>
                <mxCell id="Nag_lbrp05LJqyUg_OQA-13" value="Dashboard | Home" style="rounded=1;whiteSpace=wrap;html=1;fillColor=#A8DADC;strokeColor=#457B9D;fontColor=#1D3557;" parent="Nag_lbrp05LJqyUg_OQA-1" vertex="1">
                    <mxGeometry x="290" y="420" width="120" height="60" as="geometry"/>
                </mxCell>
                <mxCell id="Nag_lbrp05LJqyUg_OQA-14" value="User- Details" style="rounded=1;whiteSpace=wrap;html=1;fillColor=#A8DADC;strokeColor=#457B9D;fontColor=#1D3557;" parent="Nag_lbrp05LJqyUg_OQA-1" vertex="1">
                    <mxGeometry x="90" y="600" width="120" height="60" as="geometry"/>
                </mxCell>
                <mxCell id="Nag_lbrp05LJqyUg_OQA-15" value="User Items" style="rounded=1;whiteSpace=wrap;html=1;fillColor=#A8DADC;strokeColor=#457B9D;fontColor=#1D3557;" parent="Nag_lbrp05LJqyUg_OQA-1" vertex="1">
                    <mxGeometry x="220" y="600" width="120" height="60" as="geometry"/>
                </mxCell>
                <mxCell id="Nag_lbrp05LJqyUg_OQA-16" value="LIBRARY: Titles" style="rounded=1;whiteSpace=wrap;html=1;fillColor=#A8DADC;strokeColor=#457B9D;fontColor=#1D3557;" parent="Nag_lbrp05LJqyUg_OQA-1" vertex="1">
                    <mxGeometry x="350" y="600" width="120" height="60" as="geometry"/>
                </mxCell>
                <mxCell id="Nag_lbrp05LJqyUg_OQA-17" value="Wishlist" style="rounded=1;whiteSpace=wrap;html=1;sketch=1;fillColor=#A8DADC;strokeColor=#457B9D;fontColor=#1D3557;" parent="Nag_lbrp05LJqyUg_OQA-1" vertex="1">
                    <mxGeometry x="620" y="600" width="120" height="60" as="geometry"/>
                </mxCell>
                <mxCell id="Nag_lbrp05LJqyUg_OQA-18" value="User reviews" style="rounded=1;whiteSpace=wrap;html=1;sketch=1;fillColor=#A8DADC;strokeColor=#457B9D;fontColor=#1D3557;" parent="Nag_lbrp05LJqyUg_OQA-1" vertex="1">
                    <mxGeometry x="750" y="600" width="120" height="60" as="geometry"/>
                </mxCell>
                <mxCell id="Nag_lbrp05LJqyUg_OQA-19" value="Kalender" style="rounded=1;whiteSpace=wrap;html=1;fillColor=#A8DADC;strokeColor=#457B9D;sketch=1;fontColor=#1D3557;" parent="Nag_lbrp05LJqyUg_OQA-1" vertex="1">
                    <mxGeometry x="490" y="740" width="120" height="60" as="geometry"/>
                </mxCell>
                <mxCell id="Nag_lbrp05LJqyUg_OQA-20" value="Form" style="rounded=1;whiteSpace=wrap;html=1;fillColor=#A8DADC;strokeColor=#457B9D;fontColor=#1D3557;" parent="Nag_lbrp05LJqyUg_OQA-1" vertex="1">
                    <mxGeometry x="220" y="740" width="120" height="60" as="geometry"/>
                </mxCell>
                <mxCell id="Nag_lbrp05LJqyUg_OQA-21" value="" style="endArrow=classic;html=1;exitX=0.5;exitY=1;exitDx=0;exitDy=0;entryX=0.5;entryY=0;entryDx=0;entryDy=0;labelBackgroundColor=#F1FAEE;strokeColor=#457B9D;fontColor=#1D3557;" parent="Nag_lbrp05LJqyUg_OQA-1" source="Nag_lbrp05LJqyUg_OQA-15" target="Nag_lbrp05LJqyUg_OQA-20" edge="1">
                    <mxGeometry width="50" height="50" relative="1" as="geometry">
                        <mxPoint x="430" y="610" as="sourcePoint"/>
                        <mxPoint x="480" y="560" as="targetPoint"/>
                    </mxGeometry>
                </mxCell>
                <mxCell id="Nag_lbrp05LJqyUg_OQA-22" value="&lt;b&gt;&lt;br&gt;DB&lt;/b&gt;:&lt;br&gt;Title&lt;br&gt;Item, Status&lt;br&gt;Booking" style="strokeWidth=2;html=1;shape=mxgraph.flowchart.database;whiteSpace=wrap;fillColor=#A8DADC;strokeColor=#457B9D;fontColor=#1D3557;" parent="Nag_lbrp05LJqyUg_OQA-1" vertex="1">
                    <mxGeometry x="245" y="870" width="70" height="100" as="geometry"/>
                </mxCell>
                <mxCell id="Nag_lbrp05LJqyUg_OQA-23" value="register" style="endArrow=classic;html=1;exitX=0.5;exitY=1;exitDx=0;exitDy=0;entryX=0.5;entryY=0;entryDx=0;entryDy=0;entryPerimeter=0;labelBackgroundColor=#F1FAEE;strokeColor=#457B9D;fontColor=#1D3557;" parent="Nag_lbrp05LJqyUg_OQA-1" source="Nag_lbrp05LJqyUg_OQA-20" target="Nag_lbrp05LJqyUg_OQA-22" edge="1">
                    <mxGeometry width="50" height="50" relative="1" as="geometry">
                        <mxPoint x="430" y="720" as="sourcePoint"/>
                        <mxPoint x="480" y="670" as="targetPoint"/>
                    </mxGeometry>
                </mxCell>
                <mxCell id="Nag_lbrp05LJqyUg_OQA-24" value="Show Item" style="rounded=1;whiteSpace=wrap;html=1;fillColor=#A8DADC;strokeColor=#457B9D;fontColor=#1D3557;" parent="Nag_lbrp05LJqyUg_OQA-1" vertex="1">
                    <mxGeometry x="350" y="740" width="120" height="60" as="geometry"/>
                </mxCell>
                <mxCell id="Nag_lbrp05LJqyUg_OQA-25" value="Email" style="strokeWidth=2;html=1;shape=mxgraph.flowchart.document2;whiteSpace=wrap;size=0.25;fillColor=#A8DADC;strokeColor=#457B9D;fontColor=#1D3557;" parent="Nag_lbrp05LJqyUg_OQA-1" vertex="1">
                    <mxGeometry x="560" y="280" width="100" height="60" as="geometry"/>
                </mxCell>
                <mxCell id="Nag_lbrp05LJqyUg_OQA-26" value="confirm" style="endArrow=classic;html=1;exitX=0.75;exitY=1;exitDx=0;exitDy=0;entryX=0;entryY=0.5;entryDx=0;entryDy=0;entryPerimeter=0;rounded=0;edgeStyle=orthogonalEdgeStyle;labelBackgroundColor=#F1FAEE;strokeColor=#457B9D;fontColor=#1D3557;" parent="Nag_lbrp05LJqyUg_OQA-1" source="Nag_lbrp05LJqyUg_OQA-5" target="Nag_lbrp05LJqyUg_OQA-25" edge="1">
                    <mxGeometry width="50" height="50" relative="1" as="geometry">
                        <mxPoint x="400" y="370" as="sourcePoint"/>
                        <mxPoint x="450" y="320" as="targetPoint"/>
                    </mxGeometry>
                </mxCell>
                <mxCell id="Nag_lbrp05LJqyUg_OQA-27" value="Bookings" style="rounded=1;whiteSpace=wrap;html=1;fillColor=#A8DADC;strokeColor=#457B9D;fontColor=#1D3557;" parent="Nag_lbrp05LJqyUg_OQA-1" vertex="1">
                    <mxGeometry x="490" y="600" width="120" height="60" as="geometry"/>
                </mxCell>
                <mxCell id="Nag_lbrp05LJqyUg_OQA-28" value="show" style="endArrow=classic;html=1;exitX=1;exitY=0.5;exitDx=0;exitDy=0;exitPerimeter=0;entryX=0.5;entryY=1;entryDx=0;entryDy=0;rounded=0;edgeStyle=orthogonalEdgeStyle;labelBackgroundColor=#F1FAEE;strokeColor=#457B9D;fontColor=#1D3557;" parent="Nag_lbrp05LJqyUg_OQA-1" source="Nag_lbrp05LJqyUg_OQA-22" target="Nag_lbrp05LJqyUg_OQA-24" edge="1">
                    <mxGeometry x="0.4667" width="50" height="50" relative="1" as="geometry">
                        <mxPoint x="430" y="760" as="sourcePoint"/>
                        <mxPoint x="480" y="710" as="targetPoint"/>
                        <mxPoint as="offset"/>
                    </mxGeometry>
                </mxCell>
                <mxCell id="Nag_lbrp05LJqyUg_OQA-29" value="&lt;font color=&quot;#c2c2c2&quot;&gt;register&lt;br&gt;show&lt;/font&gt;" style="endArrow=classic;startArrow=classic;html=1;entryX=1;entryY=0;entryDx=0;entryDy=52.5;entryPerimeter=0;exitX=0.5;exitY=0;exitDx=0;exitDy=0;rounded=0;edgeStyle=orthogonalEdgeStyle;labelBackgroundColor=#F1FAEE;fontColor=#1D3557;strokeColor=#C2C2C2;" parent="Nag_lbrp05LJqyUg_OQA-1" source="Nag_lbrp05LJqyUg_OQA-18" target="Nag_lbrp05LJqyUg_OQA-7" edge="1">
                    <mxGeometry width="50" height="50" relative="1" as="geometry">
                        <mxPoint x="810" y="530" as="sourcePoint"/>
                        <mxPoint x="860" y="480" as="targetPoint"/>
                    </mxGeometry>
                </mxCell>
                <mxCell id="Nag_lbrp05LJqyUg_OQA-30" value="&lt;font color=&quot;#c2c2c2&quot;&gt;register&lt;br&gt;show&lt;/font&gt;" style="endArrow=classic;startArrow=classic;html=1;exitX=1.05;exitY=0.667;exitDx=0;exitDy=0;exitPerimeter=0;edgeStyle=orthogonalEdgeStyle;rounded=0;entryX=0.5;entryY=1;entryDx=0;entryDy=0;labelBackgroundColor=#F1FAEE;fontColor=#1D3557;strokeColor=#C2C2C2;" parent="Nag_lbrp05LJqyUg_OQA-1" source="Nag_lbrp05LJqyUg_OQA-22" target="Nag_lbrp05LJqyUg_OQA-19" edge="1">
                    <mxGeometry x="0.5289" width="50" height="50" relative="1" as="geometry">
                        <mxPoint x="420" y="820" as="sourcePoint"/>
                        <mxPoint x="550" y="730" as="targetPoint"/>
                        <mxPoint as="offset"/>
                    </mxGeometry>
                </mxCell>
                <mxCell id="Nag_lbrp05LJqyUg_OQA-31" value="" style="endArrow=classic;startArrow=classic;html=1;entryX=0.558;entryY=1.033;entryDx=0;entryDy=0;entryPerimeter=0;exitX=1;exitY=0.85;exitDx=0;exitDy=0;exitPerimeter=0;edgeStyle=orthogonalEdgeStyle;rounded=0;labelBackgroundColor=#F1FAEE;fontColor=#1D3557;strokeColor=#C2C2C2;" parent="Nag_lbrp05LJqyUg_OQA-1" source="Nag_lbrp05LJqyUg_OQA-22" target="Nag_lbrp05LJqyUg_OQA-17" edge="1">
                    <mxGeometry width="50" height="50" relative="1" as="geometry">
                        <mxPoint x="420" y="810" as="sourcePoint"/>
                        <mxPoint x="470" y="760" as="targetPoint"/>
                    </mxGeometry>
                </mxCell>
                <mxCell id="Nag_lbrp05LJqyUg_OQA-32" value="register&lt;br&gt;search" style="edgeLabel;html=1;align=center;verticalAlign=middle;resizable=0;points=[];fontColor=#1D3557;labelBackgroundColor=#F1FAEE;" parent="Nag_lbrp05LJqyUg_OQA-31" vertex="1" connectable="0">
                    <mxGeometry x="0.5603" y="-1" relative="1" as="geometry">
                        <mxPoint as="offset"/>
                    </mxGeometry>
                </mxCell>
                <mxCell id="Nag_lbrp05LJqyUg_OQA-33" value="Email" style="strokeWidth=2;html=1;shape=mxgraph.flowchart.document2;whiteSpace=wrap;size=0.25;fillColor=#A8DADC;strokeColor=#457B9D;sketch=1;fontColor=#1D3557;" parent="Nag_lbrp05LJqyUg_OQA-1" vertex="1">
                    <mxGeometry x="500" y="480" width="100" height="60" as="geometry"/>
                </mxCell>
                <mxCell id="Nag_lbrp05LJqyUg_OQA-34" value="confirm | notice" style="endArrow=classic;html=1;exitX=0.5;exitY=0;exitDx=0;exitDy=0;entryX=0.5;entryY=0.867;entryDx=0;entryDy=0;entryPerimeter=0;labelBackgroundColor=#F1FAEE;strokeColor=#457B9D;fontColor=#1D3557;" parent="Nag_lbrp05LJqyUg_OQA-1" source="Nag_lbrp05LJqyUg_OQA-27" target="Nag_lbrp05LJqyUg_OQA-33" edge="1">
                    <mxGeometry width="50" height="50" relative="1" as="geometry">
                        <mxPoint x="420" y="680" as="sourcePoint"/>
                        <mxPoint x="470" y="630" as="targetPoint"/>
                    </mxGeometry>
                </mxCell>
                <mxCell id="Nag_lbrp05LJqyUg_OQA-35" value="Cart" style="rounded=1;whiteSpace=wrap;html=1;sketch=0;fillColor=#A8DADC;strokeColor=#457B9D;fontColor=#1D3557;" parent="Nag_lbrp05LJqyUg_OQA-1" vertex="1">
                    <mxGeometry x="490" y="670" width="120" height="60" as="geometry"/>
                </mxCell>
                <mxCell id="Nag_lbrp05LJqyUg_OQA-36" value="Messages" style="rounded=1;whiteSpace=wrap;html=1;sketch=1;fillColor=#A8DADC;strokeColor=#457B9D;fontColor=#1D3557;" parent="Nag_lbrp05LJqyUg_OQA-1" vertex="1">
                    <mxGeometry x="890" y="600" width="120" height="60" as="geometry"/>
                </mxCell>
                <mxCell id="Nag_lbrp05LJqyUg_OQA-37" value="" style="endArrow=classic;startArrow=classic;html=1;exitX=0.5;exitY=0;exitDx=0;exitDy=0;entryX=1;entryY=0;entryDx=0;entryDy=32.5;entryPerimeter=0;edgeStyle=orthogonalEdgeStyle;rounded=0;labelBackgroundColor=#F1FAEE;fontColor=#1D3557;strokeColor=#C2C2C2;" parent="Nag_lbrp05LJqyUg_OQA-1" source="Nag_lbrp05LJqyUg_OQA-36" target="Nag_lbrp05LJqyUg_OQA-7" edge="1">
                    <mxGeometry width="50" height="50" relative="1" as="geometry">
                        <mxPoint x="710" y="460" as="sourcePoint"/>
                        <mxPoint x="760" y="410" as="targetPoint"/>
                    </mxGeometry>
                </mxCell>
                <mxCell id="Nag_lbrp05LJqyUg_OQA-38" value="register&lt;br&gt;show" style="edgeLabel;html=1;align=center;verticalAlign=middle;resizable=0;points=[];fontColor=#1D3557;labelBackgroundColor=#F1FAEE;" parent="Nag_lbrp05LJqyUg_OQA-37" vertex="1" connectable="0">
                    <mxGeometry x="-0.2263" y="-1" relative="1" as="geometry">
                        <mxPoint as="offset"/>
                    </mxGeometry>
                </mxCell>
                <mxCell id="Nag_lbrp05LJqyUg_OQA-39" value="Groups" style="rounded=1;whiteSpace=wrap;html=1;fillColor=#A8DADC;strokeColor=#457B9D;sketch=1;fontColor=#1D3557;" parent="Nag_lbrp05LJqyUg_OQA-1" vertex="1">
                    <mxGeometry x="1030" y="600" width="120" height="60" as="geometry"/>
                </mxCell>
                <mxCell id="Nag_lbrp05LJqyUg_OQA-40" value="LIBRARY: Items" style="rounded=1;whiteSpace=wrap;html=1;fillColor=#A8DADC;strokeColor=#457B9D;fontColor=#1D3557;" parent="Nag_lbrp05LJqyUg_OQA-1" vertex="1">
                    <mxGeometry x="350" y="670" width="120" height="60" as="geometry"/>
                </mxCell>
            </root>
        </mxGraphModel>
    </diagram>
</mxfile>